<svg width="16" height="16" viewBox="0 0 16 16" fill="none" xmlns="http://www.w3.org/2000/svg">
<path d="M10.9229 8.34287C10.8371 8.25042 10.7895 8.12897 10.7895 8.00287C10.7895 7.87677 10.8371 7.75533 10.9229 7.66287L14.4629 4.12288C14.6343 3.95359 14.7704 3.75194 14.8633 3.52964C14.9562 3.30734 15.0041 3.06881 15.0041 2.82788C15.0041 2.58694 14.9562 2.34841 14.8633 2.12611C14.7704 1.90381 14.6343 1.70216 14.4629 1.53288C14.12 1.19213 13.6563 1.00087 13.1729 1.00087C12.6895 1.00087 12.2257 1.19213 11.8829 1.53288L8.34286 5.07287C8.29827 5.11762 8.2453 5.15313 8.18695 5.17736C8.12861 5.20158 8.06604 5.21405 8.00287 5.21405C7.93969 5.21405 7.87713 5.20158 7.81879 5.17736C7.76044 5.15313 7.70747 5.11762 7.66287 5.07287L4.12286 1.53288C3.7783 1.19151 3.31291 1 2.82788 1C2.34285 1 1.87743 1.19151 1.53287 1.53288C1.1915 1.87744 1 2.34285 1 2.82788C1 3.3129 1.1915 3.77831 1.53287 4.12288L5.07288 7.66287C5.11762 7.70747 5.15311 7.76046 5.17734 7.8188C5.20156 7.87715 5.21405 7.9397 5.21405 8.00287C5.21405 8.06605 5.20156 8.1286 5.17734 8.18695C5.15311 8.24529 5.11762 8.29828 5.07288 8.34287L1.63287 11.7829C1.28863 12.1113 1.07781 12.5553 1.04089 13.0296C1.00398 13.5039 1.14357 13.9752 1.43286 14.3529C1.60522 14.5561 1.81971 14.7195 2.06143 14.8318C2.30316 14.944 2.56638 15.0024 2.83289 15.0029C3.31742 15.0008 3.78131 14.8066 4.12286 14.4629L7.66287 10.9229C7.75533 10.8371 7.87677 10.7895 8.00287 10.7895C8.12897 10.7895 8.25041 10.8371 8.34286 10.9229L11.8829 14.4629C12.0506 14.6349 12.2513 14.7713 12.473 14.8641C12.6946 14.9568 12.9326 15.004 13.1729 15.0029C13.4379 15.0023 13.6996 14.9438 13.9397 14.8315C14.1798 14.7193 14.3925 14.5559 14.5629 14.3529C14.8577 13.9781 15.0018 13.5066 14.9666 13.031C14.9315 12.5554 14.7196 12.1102 14.3729 11.7829L10.9229 8.34287Z" fill="#002E6E"/>
</svg>
