<svg
  width="18"
  height="18"
  viewBox="0 0 18 18"
  fill="none"
  xmlns="http://www.w3.org/2000/svg"
>
  <path
    fill-rule="evenodd"
    clip-rule="evenodd"
    d="M15.3321 1.85931H12.088L12.0551 1.85834C12.0222 1.85544 11.9903 1.85157 11.9584 1.8448C11.8848 1.82836 11.8132 1.79644 11.7513 1.75195C11.5896 1.63782 11.4967 1.44341 11.5074 1.2461C11.5103 1.19194 11.5209 1.13777 11.5393 1.08748C11.5606 1.02558 11.5925 0.967548 11.6332 0.917252C11.6806 0.857286 11.7396 0.807958 11.8064 0.771207C11.8635 0.740257 11.9264 0.718012 11.9903 0.707372C12.0193 0.702536 12.0261 0.702536 12.0551 0.699635C13.6191 0.656111 15.185 0.656111 16.7479 0.699635H16.7653C16.7711 0.700602 16.7759 0.700602 16.7817 0.701569L16.7982 0.702536C16.8359 0.708339 16.8466 0.70834 16.8833 0.718979C16.8959 0.722848 16.9075 0.725749 16.9201 0.729618L16.925 0.731552L16.9366 0.735422L16.9559 0.743159L16.9617 0.74606C16.9898 0.757667 17.0169 0.772175 17.043 0.788618C17.0924 0.819568 17.1359 0.857288 17.1747 0.90178C17.193 0.923058 17.2095 0.945303 17.225 0.969484L17.2259 0.971418C17.2434 0.998501 17.2589 1.02752 17.2714 1.05847C17.2869 1.09522 17.2966 1.13197 17.3043 1.17066L17.3053 1.17646C17.3072 1.18613 17.3082 1.19484 17.3092 1.20354C17.3111 1.21805 17.313 1.23256 17.314 1.24803C17.3576 2.80523 17.315 4.36435 17.315 5.9235C17.314 5.95252 17.315 5.96026 17.3111 5.98831C17.3034 6.05311 17.285 6.11598 17.2569 6.17498C17.224 6.24365 17.1776 6.30555 17.1214 6.35584C17.0808 6.3926 17.0353 6.42258 16.9859 6.44579C16.7972 6.53671 16.5688 6.51736 16.3975 6.39646C16.3443 6.35875 16.2978 6.31232 16.2601 6.25912C16.2098 6.18852 16.1759 6.1063 16.1614 6.02023C16.1556 5.98831 16.1536 5.95639 16.1536 5.9235V2.6814L8.62809 10.2023C8.60002 10.2284 8.59325 10.2362 8.56228 10.2584C8.51582 10.2932 8.46356 10.3203 8.40937 10.3397C8.34162 10.3638 8.26807 10.3745 8.19645 10.3716C8.00677 10.3648 7.82772 10.2613 7.72611 10.1007C7.69515 10.0514 7.67192 9.99823 7.65643 9.94213C7.64095 9.88603 7.63514 9.828 7.63708 9.76997C7.64095 9.66841 7.67192 9.56879 7.72612 9.4827C7.74934 9.44595 7.77741 9.41306 7.80741 9.38114L15.3329 1.86023L15.3321 1.85931Z"
    fill="#0071bc"
    stroke="#0071bc"
    stroke-width="0.8"
  />
  <path
    d="M8.27161 2.24956C8.32 2.25633 8.33258 2.25633 8.38 2.27084C8.48646 2.30179 8.58324 2.36369 8.65486 2.44687C8.69164 2.48846 8.72164 2.53586 8.7439 2.58615C8.76713 2.63644 8.78261 2.69061 8.79036 2.74477C8.81358 2.91016 8.76423 3.08136 8.65486 3.20709C8.60647 3.26319 8.54744 3.30961 8.4826 3.3425C8.41679 3.37635 8.34517 3.39763 8.27162 3.4044C8.25323 3.40633 8.23484 3.40633 8.21645 3.4073C7.80902 3.4073 7.40157 3.4073 6.9951 3.40924C6.33701 3.4131 5.6789 3.41794 5.02275 3.45373C4.65788 3.47307 4.29207 3.50209 3.9311 3.55819C3.83335 3.57366 3.7356 3.59107 3.63785 3.61041C3.57204 3.62396 3.50623 3.63943 3.44042 3.65684C3.13749 3.73518 2.83169 3.85028 2.5936 4.06016C2.54908 4.09982 2.5065 4.14237 2.46779 4.18783C2.34972 4.32614 2.26165 4.48765 2.19486 4.65595C2.11357 4.85906 2.05937 5.07184 2.01872 5.2856C1.96065 5.58737 1.92581 5.89396 1.90259 6.20056C1.86097 6.71899 1.84742 7.23933 1.83871 7.75969C1.83194 8.22587 1.83 8.69206 1.83 9.15921V10.4195C1.83 11.0094 1.83291 11.6004 1.84742 12.1913C1.86097 12.7078 1.8813 13.2263 1.94033 13.7408C1.95582 13.8762 1.9742 14.0106 1.99646 14.1451C2.03808 14.3907 2.09324 14.6374 2.18228 14.8714C2.25486 15.0649 2.35261 15.2506 2.49004 15.4063C2.76103 15.712 3.16071 15.857 3.54879 15.947C3.62912 15.9654 3.71041 15.9818 3.79171 15.9973C3.89429 16.0156 3.99882 16.0321 4.10237 16.0456C4.63174 16.1162 5.16694 16.1394 5.70018 16.154C6.32926 16.1714 6.95927 16.1733 7.58835 16.1733H8.8455C9.3536 16.1733 9.86073 16.1714 10.3688 16.1617C10.8779 16.152 11.3869 16.1365 11.894 16.0911C12.1921 16.065 12.4902 16.0292 12.7834 15.9673C13.0312 15.9151 13.2789 15.8454 13.5054 15.7313C13.6399 15.6636 13.7657 15.5794 13.8741 15.475C14.1441 15.2138 14.2787 14.8482 14.3658 14.4904C14.3822 14.4227 14.3967 14.3549 14.4103 14.2872C14.4296 14.1876 14.4471 14.087 14.4616 13.9855C14.4819 13.8443 14.4984 13.7011 14.5119 13.5589C14.5564 13.1034 14.5748 12.6459 14.5864 12.1874C14.6067 11.3885 14.6038 10.5887 14.6038 9.78879L14.6067 9.73365C14.6097 9.71528 14.6106 9.6969 14.6145 9.67852C14.628 9.60598 14.6561 9.53731 14.6968 9.47445C14.7268 9.42802 14.7626 9.38546 14.8051 9.34968C14.9319 9.24038 15.1032 9.19009 15.2678 9.21427C15.3229 9.222 15.3761 9.23748 15.4265 9.26069C15.4932 9.29164 15.5542 9.3342 15.6055 9.38836C15.682 9.46864 15.7342 9.5702 15.7555 9.67949C15.7652 9.72785 15.7633 9.74042 15.7662 9.78975C15.7662 10.1979 15.7662 10.6051 15.7642 11.0133C15.7623 11.4146 15.7584 11.816 15.7487 12.2165C15.742 12.4902 15.7323 12.7639 15.7168 13.0376C15.7052 13.2484 15.6897 13.4593 15.6694 13.6701C15.6568 13.7998 15.6423 13.9294 15.6249 14.058C15.6123 14.1499 15.5987 14.2418 15.5832 14.3327C15.4865 14.9053 15.321 15.4827 14.9803 15.9614C14.929 16.034 14.8739 16.1036 14.8148 16.1704C14.7229 16.2748 14.6213 16.3715 14.5129 16.4586C14.3532 16.5872 14.178 16.6955 13.9931 16.7855C13.5789 16.9867 13.1241 17.096 12.6711 17.1666C12.344 17.2178 12.014 17.2488 11.684 17.271C11.3385 17.2942 10.9911 17.3078 10.6446 17.3155C10.1462 17.3281 9.64778 17.331 9.14935 17.3329C8.62866 17.3349 8.10801 17.3339 7.58733 17.3329C6.98922 17.3329 6.39018 17.331 5.79111 17.3155C5.24042 17.302 4.68783 17.2797 4.14005 17.2178C4.01424 17.2033 3.88939 17.1869 3.76455 17.1675C3.16162 17.0737 2.54902 16.9112 2.04479 16.5543C1.9722 16.5031 1.90252 16.4479 1.83575 16.3899C1.7409 16.3058 1.65186 16.2149 1.57057 16.1172C1.51347 16.0494 1.46025 15.9779 1.41089 15.9034C1.0983 15.4372 0.944417 14.8859 0.851509 14.3385C0.831185 14.2157 0.812797 14.0928 0.797313 13.969C0.78086 13.8375 0.767312 13.7059 0.755697 13.5744C0.736341 13.3597 0.722793 13.1459 0.712147 12.9312C0.695695 12.6101 0.686985 12.289 0.680209 11.9679C0.672467 11.5529 0.669563 11.138 0.668596 10.7231C0.66666 10.2018 0.66666 9.68047 0.667628 9.15817C0.667628 8.6001 0.669563 8.04203 0.681177 7.48493C0.687951 7.16963 0.697629 6.85334 0.71505 6.53805C0.726664 6.3272 0.741181 6.11636 0.761504 5.9055C0.776989 5.74494 0.795377 5.58438 0.817635 5.42384C0.830216 5.33292 0.844735 5.24297 0.861185 5.15301C0.958932 4.61138 1.12249 4.06686 1.4438 3.61322C1.4951 3.54068 1.55026 3.47104 1.6093 3.40431C1.70124 3.29985 1.80286 3.20313 1.91126 3.11607C2.08062 2.9797 2.26837 2.86654 2.46484 2.77369C2.84227 2.59669 3.25166 2.49417 3.66103 2.42551C3.94847 2.37715 4.23879 2.3462 4.52913 2.32299C4.82431 2.29978 5.12045 2.2843 5.41755 2.27463C5.84629 2.25916 6.27597 2.25335 6.70471 2.25045C7.20795 2.24658 7.71218 2.24658 8.21545 2.24658C8.23383 2.24755 8.25222 2.24852 8.27061 2.24948L8.27161 2.24956Z"
    fill="#0071bc"
    stroke="#0071bc"
    stroke-width="0.8"
  />
</svg>
