<svg width="356" height="197" viewBox="0 0 356 197" fill="none" xmlns="http://www.w3.org/2000/svg">
<mask id="mask0_1202_9537" style="mask-type:alpha" maskUnits="userSpaceOnUse" x="0" y="0" width="356" height="197">
<rect width="356" height="197" fill="#C4C4C4"/>
</mask>
<g mask="url(#mask0_1202_9537)">
<path d="M136.791 172.83C137.191 172.23 139.691 174.33 147.991 172.83C150.213 172.46 152.224 171.29 153.643 169.54C155.061 167.79 155.79 165.58 155.691 163.33C155.491 157.53 166.891 154.73 161.291 143.73C157.491 136.33 162.791 125.43 156.191 120.33C143.891 110.63 156.991 108.63 146.591 97.1296C139.591 89.3296 149.701 80.0296 140.401 70.7296C133.801 64.1296 134.401 58.2696 135.041 48.9696C135.681 39.6696 127.041 27.5596 119.531 22.0596C114.131 18.0596 109.721 12.3996 94.6309 14.3596C83.9209 15.7596 74.7609 17.2596 67.0609 31.1596C61.4209 45.3896 49.3709 45.5296 47.6909 59.6796C47.4909 81.1796 44.2909 75.3296 36.4909 83.5296C23.4909 97.2296 37.4909 103.93 28.5909 116.43C19.6909 128.93 40.1909 135.63 32.6909 148.13C28.5909 155.03 28.1909 159.93 28.7909 164.63C29.1909 167.33 33.9909 170.63 36.7909 170.73C44.4909 171.03 44.1909 168.43 47.1909 170.03C51.0909 172.23 72.8909 171.63 80.4909 168.53C88.0909 165.43 92.5909 170.13 104.791 170.03C116.991 169.93 117.991 174.43 123.791 171.43C129.591 168.43 136.791 172.83 136.791 172.83Z" fill="#482F17"/>
<path d="M113.009 97.2003L108.159 95.5703L107.109 99.5903L109.579 102.48L113.579 101.26L113.009 97.2003Z" fill="#DB8993"/>
<path d="M76.0307 97.2003L80.8907 95.5703L81.9307 99.5903L79.4607 102.48L75.4707 101.26L76.0307 97.2003Z" fill="#DB8993"/>
<path d="M108.45 98.7305V94.8905L80.4499 92.9805V97.9805C80.4385 99.5712 79.9091 101.115 78.942 102.378C77.9749 103.641 76.6226 104.555 75.0899 104.98L66.6699 107.32C66.6699 107.32 69.6699 122.78 93.3799 122.63C120.75 122.47 122.26 108.51 122.26 108.51L113.52 105.64C112.056 105.168 110.778 104.245 109.868 103.005C108.958 101.765 108.462 100.269 108.45 98.7305Z" fill="#D0845B"/>
<g opacity="0.1">
<path opacity="0.1" d="M108.639 100.38L108.449 99.3005V93.3905L80.4492 92.9805L80.5292 98.4905C80.5292 99.7605 88.4692 105.18 95.4792 105.25C102.489 105.32 108.639 101.57 108.639 100.38Z" fill="#4A2C03"/>
</g>
<path d="M123.42 54.6703H123.02C121.62 30.9703 112.82 16.5703 94.0195 16.5703C79.2195 16.5703 74.1195 26.7703 70.3195 42.0703C69.4195 45.7703 69.3195 50.1703 67.9195 53.8703C67.7914 54.163 67.5819 54.4129 67.3161 54.5901C67.0502 54.7674 66.739 54.8646 66.4195 54.8703C64.3195 54.9703 62.5195 58.3703 62.5195 62.6703C62.5195 66.9703 64.3195 71.0703 66.4195 70.4703C67.1195 70.2703 68.3195 71.6703 68.4195 72.2703C69.6195 78.6703 70.5195 83.6803 74.3195 87.6803C80.9195 94.5803 86.5495 100.34 94.9695 100.68C104.48 101.02 111.15 92.5503 115.4 87.8503C120.03 82.7103 120.32 78.5203 121.32 72.4203C121.42 71.7203 122.42 70.3203 123.32 70.3203C125.42 70.1203 127.22 66.8203 127.22 62.5203C127.22 58.2203 125.52 54.6703 123.42 54.6703Z" fill="#D0845B"/>
<path d="M96.7897 77.1698C97.3337 77.215 97.8806 77.1297 98.385 76.921C98.8894 76.7123 99.3367 76.3862 99.6897 75.9698C101.29 73.8698 99.4897 70.2698 99.2897 69.7698C99.1836 69.5577 98.9976 69.3963 98.7726 69.3213C98.5475 69.2463 98.3019 69.2637 98.0897 69.3698C97.8775 69.4759 97.7162 69.6619 97.6412 69.887C97.5662 70.112 97.5836 70.3577 97.6897 70.5698C98.0897 71.3698 98.9897 73.8698 98.1897 74.9698C97.6897 75.5698 96.4897 75.5698 95.4897 75.3698C95.2643 75.33 95.0323 75.3814 94.8447 75.5127C94.6572 75.644 94.5295 75.8444 94.4897 76.0698C94.4499 76.2953 94.5013 76.5273 94.6326 76.7148C94.7639 76.9023 94.9643 77.03 95.1897 77.0698C95.7197 77.1444 96.2546 77.1779 96.7897 77.1698Z" fill="#211E1F"/>
<path d="M84.9904 65.7695C88.1904 65.7695 88.1904 60.7695 84.9904 60.7695C81.7904 60.7695 81.6904 65.7695 84.9904 65.7695Z" fill="#211E1F"/>
<path d="M108.369 66.0703C111.569 66.0703 111.569 61.0703 108.369 61.0703C105.169 61.0703 105.069 66.0703 108.369 66.0703Z" fill="#211E1F"/>
<path d="M66.4206 54.83C68.7406 57.83 70.0706 56.31 71.2806 54.41C73.6306 50.7 76.7706 44.59 81.5706 43.61C88.1006 42.61 96.4206 46.23 101.721 42.32C106.511 38.8 106.511 34.92 106.991 34.83C109.891 34.23 106.591 43.23 114.791 44.43C126.191 46.13 121.721 55.24 122.321 57.64C122.921 60.04 125.791 54.23 125.791 54.23C125.791 54.23 127.491 45.13 125.191 40.33C122.891 35.53 123.901 17.16 98.3906 15.33C69.2906 13.24 61.8906 46.83 61.8906 46.83L66.4206 54.83Z" fill="#482F17"/>
<path d="M66.2902 79.7699C64.6194 79.7699 63.0169 79.1062 61.8355 77.9247C60.654 76.7432 59.9902 75.1408 59.9902 73.4699C59.9902 71.7991 60.654 70.1966 61.8355 69.0152C63.0169 67.8337 64.6194 67.1699 66.2902 67.1699C66.4228 67.1699 66.55 67.2226 66.6438 67.3164C66.7376 67.4101 66.7902 67.5373 66.7902 67.6699C66.7902 67.8025 66.7376 67.9297 66.6438 68.0235C66.55 68.1173 66.4228 68.1699 66.2902 68.1699C64.8846 68.1699 63.5365 68.7283 62.5426 69.7223C61.5486 70.7162 60.9902 72.0643 60.9902 73.4699C60.9902 74.8756 61.5486 76.2236 62.5426 77.2176C63.5365 78.2115 64.8846 78.7699 66.2902 78.7699C67.458 78.7208 68.5852 78.3277 69.5302 77.6399L69.7702 78.7399C68.7297 79.4027 67.5239 79.7596 66.2902 79.7699Z" fill="#FBCA17"/>
<path d="M123.991 79.9701C125.662 79.9701 127.264 79.3064 128.446 78.1249C129.627 76.9434 130.291 75.341 130.291 73.6701C130.291 71.9993 129.627 70.3968 128.446 69.2153C127.264 68.0339 125.662 67.3701 123.991 67.3701C123.858 67.3701 123.731 67.4228 123.637 67.5166C123.544 67.6103 123.491 67.7375 123.491 67.8701C123.491 68.0027 123.544 68.1299 123.637 68.2237C123.731 68.3174 123.858 68.3701 123.991 68.3701C125.397 68.3701 126.745 68.9285 127.739 69.9225C128.733 70.9164 129.291 72.2645 129.291 73.6701C129.291 75.0758 128.733 76.4238 127.739 77.4178C126.745 78.4117 125.397 78.9701 123.991 78.9701C122.681 78.9082 121.428 78.4122 120.431 77.5601L120.211 78.7301C121.284 79.5793 122.624 80.0188 123.991 79.9701Z" fill="#FBCA17"/>
<path d="M116.56 52.2196C116.706 52.2222 116.849 52.1888 116.978 52.1225C117.107 52.0562 117.218 51.959 117.3 51.8396C117.442 51.6445 117.501 51.4013 117.463 51.1632C117.426 50.9251 117.295 50.7116 117.1 50.5696C114.999 49.2632 112.658 48.3895 110.214 47.9997C107.771 47.6099 105.274 47.7118 102.87 48.2996C102.754 48.3258 102.643 48.3748 102.545 48.4438C102.447 48.5128 102.364 48.6004 102.3 48.7016C102.236 48.8029 102.192 48.9157 102.172 49.0337C102.151 49.1518 102.154 49.2727 102.18 49.3896C102.207 49.5064 102.256 49.617 102.325 49.7149C102.394 49.8128 102.481 49.8962 102.582 49.9603C102.684 50.0244 102.797 50.0679 102.915 50.0883C103.033 50.1088 103.154 50.1058 103.27 50.0796C107.621 49.0339 112.208 49.7529 116.03 52.0796C116.188 52.1815 116.373 52.2305 116.56 52.2196Z" fill="#4A2C03"/>
<path d="M78.5295 52.2204C78.3368 52.2205 78.1489 52.1593 77.9932 52.0458C77.8374 51.9323 77.7217 51.7722 77.6627 51.5887C77.6038 51.4052 77.6046 51.2077 77.6652 51.0246C77.7257 50.8416 77.8428 50.6826 77.9995 50.5704C80.0986 49.2627 82.438 48.3883 84.8801 47.9984C87.3222 47.6086 89.8177 47.7112 92.2195 48.3004C92.4556 48.3534 92.6609 48.4981 92.7903 48.7025C92.9197 48.9069 92.9625 49.1543 92.9095 49.3904C92.8565 49.6264 92.7118 49.8317 92.5074 49.9611C92.303 50.0905 92.0556 50.1334 91.8195 50.0804C87.469 49.0347 82.8814 49.7537 79.0595 52.0804C78.9023 52.1823 78.7166 52.2313 78.5295 52.2204Z" fill="#4A2C03"/>
<path d="M44.83 232.4C30.62 231.62 31.25 225.2 31.23 219.73C31.23 219.73 14 215.73 14 206.06C14 155.06 34.61 130.06 41.53 122.3C47 116.14 75.34 105.19 76.22 107.8C76.5 108.62 77.67 117.42 96.87 116.53C111.93 115.84 115.77 107.53 115.98 107.11C116.78 105.69 144.89 116.02 151.4 120.99C159.06 126.84 183.52 175.79 180.83 205.75C180.37 211.44 163.07 215.83 163.07 215.83C163.13 235.83 155.07 230.89 141.5 233.49L44.83 232.4Z" fill="#EFC5CA"/>
<path d="M101.751 112.94C100.331 113.03 96.7509 113.19 95.1509 113.15C92.1877 113.11 89.2321 112.839 86.3109 112.34C80.7509 111.34 89.0209 233.86 89.0209 233.86L101.501 233.72C101.501 233.72 110.751 112.4 101.751 112.94Z" fill="#DFEDF1"/>
<path d="M70.9795 105.03C70.9795 105.03 50.4495 115.84 40.9295 122.03C31.4095 128.22 25.2695 147.83 25.2695 147.83L22.2695 200.96L90.2695 235.84L90.1595 144.03L89.2295 109.03H70.2295L70.9795 105.03Z" fill="#EFC5CA"/>
<path d="M116.611 106.16C131.301 109.38 138.921 113.35 148.751 118.94C161.751 126.39 167.681 149.94 167.681 149.94L165.251 204.94L97.8608 237.26L97.8008 227.14L100.581 146.14L100.791 108.97C100.671 108.96 105.011 103.61 116.611 106.16Z" fill="#EFC5CA"/>
<path d="M46.52 125.25C48.2914 130.49 51.0023 135.363 54.52 139.63C54.8078 139.918 55.1981 140.08 55.6051 140.08C56.012 140.08 56.4023 139.918 56.6901 139.63C56.9778 139.343 57.1395 138.952 57.1395 138.545C57.1395 138.138 56.9778 137.748 56.6901 137.46C53.542 133.596 51.1226 129.191 49.55 124.46C49.4988 124.269 49.4091 124.091 49.2863 123.936C49.1635 123.781 49.0103 123.652 48.8361 123.559C48.6619 123.465 48.4703 123.408 48.2732 123.391C48.0761 123.374 47.8777 123.398 47.6901 123.46C47.488 123.498 47.296 123.578 47.1267 123.695C46.9574 123.811 46.8144 123.962 46.7069 124.137C46.5995 124.313 46.53 124.508 46.503 124.712C46.476 124.916 46.492 125.123 46.55 125.32L46.52 125.25Z" fill="#EDAFB7"/>
<path d="M145.431 123.7C143.261 129.18 140.781 134.7 138.191 139.94C137.261 141.7 139.951 143.25 140.881 141.5C143.681 135.91 146.161 130.22 148.441 124.42C148.498 124.232 148.517 124.035 148.497 123.839C148.478 123.644 148.42 123.455 148.327 123.282C148.234 123.109 148.108 122.956 147.956 122.832C147.804 122.708 147.629 122.616 147.441 122.56C147.025 122.454 146.584 122.514 146.211 122.727C145.838 122.939 145.562 123.288 145.441 123.7H145.431Z" fill="#EDAFB7"/>
<path d="M88.6307 241.12L88.2207 109.01C88.2207 108.735 88.3297 108.472 88.5238 108.278C88.7179 108.084 88.9812 107.975 89.2557 107.975C89.5302 107.975 89.7934 108.084 89.9875 108.278C90.1816 108.472 90.2907 108.735 90.2907 109.01L90.8707 241.1L88.6307 241.12Z" fill="#FBCA17"/>
<path d="M55.8401 175.53C55.8401 175.53 62.7901 172.4 68.8401 177.29C70.6047 178.807 72.5825 180.057 74.7101 181L65.8301 194L51.8301 187.51L55.8401 175.53Z" fill="#C8724D"/>
<path d="M56.5699 163.71C55.4349 167.5 54.0622 171.214 52.4599 174.83C51.0399 178.45 49.2999 182.18 48.5699 186.01C48.1199 188.38 51.7399 189.39 52.1999 187.01C52.9299 183.18 54.6699 179.45 56.0899 175.83C57.6881 172.21 59.0574 168.493 60.1899 164.7C60.7899 162.35 57.1899 161.35 56.5699 163.7V163.71Z" fill="#EDAFB7"/>
<path d="M144.83 187.49C144.91 185.198 145.201 182.918 145.7 180.68C146.138 178.35 146.913 176.097 148 173.99C148.109 173.553 148.059 173.092 147.86 172.689C147.661 172.285 147.325 171.966 146.912 171.787C146.499 171.608 146.036 171.581 145.605 171.712C145.174 171.843 144.804 172.122 144.56 172.5L145.81 167.09C145.909 166.625 145.854 166.14 145.654 165.708C145.454 165.276 145.119 164.921 144.7 164.696C144.281 164.47 143.8 164.387 143.329 164.458C142.859 164.529 142.424 164.751 142.09 165.09L143.09 160.82C143.229 160.258 143.14 159.663 142.843 159.166C142.546 158.669 142.065 158.308 141.504 158.164C140.943 158.019 140.348 158.101 139.847 158.392C139.347 158.684 138.981 159.161 138.83 159.72L137.83 162.72C137.797 162.125 137.554 161.561 137.145 161.128C136.735 160.695 136.185 160.421 135.593 160.355C135 160.289 134.404 160.435 133.909 160.767C133.414 161.1 133.053 161.597 132.89 162.17C132.89 162.17 130.12 168.1 129.5 171.17L127.5 181.17C128.61 176.75 120.09 184.55 122.35 184.51C129.946 184.452 137.512 185.455 144.83 187.49Z" fill="#C8724D"/>
<path d="M101.909 188.03L79.0391 182.31L65.8691 198.6L70.1991 219.56L93.9391 211.59L114.899 207.09L101.909 188.03Z" fill="#016D44"/>
<path d="M93.1705 85.0897C94.1208 85.3273 95.0921 85.4714 96.0705 85.5197C99.4005 85.6197 102.071 84.6597 103.691 82.8297C103.812 82.6269 103.857 82.3877 103.819 82.1545C103.781 81.9214 103.661 81.7094 103.481 81.556C103.301 81.4027 103.073 81.3179 102.837 81.3167C102.601 81.3156 102.372 81.3981 102.191 81.5497C101.011 82.9397 98.8605 83.5497 96.1905 83.4797C93.5205 83.4097 91.3605 82.4097 90.7205 81.5497C90.6432 81.4431 90.5456 81.3528 90.4333 81.284C90.321 81.2152 90.1963 81.1693 90.0662 81.1488C89.9361 81.1284 89.8033 81.1339 89.6753 81.1649C89.5474 81.1959 89.4268 81.2519 89.3205 81.3297C89.2147 81.4077 89.1253 81.5059 89.0574 81.6185C88.9896 81.7311 88.9446 81.8561 88.9251 81.9861C88.9056 82.1161 88.912 82.2487 88.9438 82.3763C88.9756 82.5039 89.0322 82.624 89.1105 82.7297C90.1517 83.9603 91.5858 84.794 93.1705 85.0897Z" fill="#211E1F"/>
<path d="M80.3691 95.7197L74.5391 96.4197C72.2465 96.6895 70.127 97.774 68.5668 99.4755C67.0067 101.177 66.1096 103.382 66.0391 105.69L65.9791 110.47C65.9633 111.473 66.2495 112.457 66.8006 113.295C67.3516 114.134 68.1421 114.787 69.0691 115.17C69.0691 115.17 88.2891 124.59 88.2891 119.57C88.2891 114.55 88.2891 111.68 88.2891 111.68L88.4691 106.21C88.4806 105.799 88.3551 105.397 88.1125 105.065C87.8699 104.734 87.5239 104.493 87.1291 104.38L85.1291 103.76C82.7691 102.99 75.7091 101.76 76.0491 99.8797C76.4591 97.5197 79.5591 97.8797 80.4591 97.6197L80.3691 95.7197Z" fill="#EDAFB7"/>
<path d="M108.431 95.6299L114.511 96.4199C116.804 96.6894 118.925 97.7735 120.487 99.4748C122.049 101.176 122.948 103.382 123.021 105.69L123.081 110.47C123.096 111.473 122.81 112.457 122.259 113.296C121.708 114.134 120.918 114.787 119.991 115.17C119.991 115.17 100.771 124.59 100.771 119.57C100.771 114.55 100.771 111.68 100.771 111.68L100.601 106.21C100.587 105.8 100.71 105.398 100.951 105.066C101.192 104.735 101.537 104.493 101.931 104.38C102.411 104.24 103.061 104.04 103.931 103.76C106.291 102.99 113.351 101.76 113.011 99.8799C112.591 97.5199 109.311 97.8799 108.411 97.5799L108.431 95.6299Z" fill="#EDAFB7"/>
<path d="M66.4199 186.56C65.4199 189.94 64.1699 197.01 66.6599 198.46C68.2084 199.35 69.8116 200.142 71.4599 200.83C71.4599 200.83 70.7399 203.07 73.4599 206.42C75.1399 208.51 80.1799 211.54 86.4599 213.81C90.2399 215.18 101.02 208.81 105.22 209.3C110.98 209.92 122.16 216.9 135.52 216.08C147.97 215.32 104.52 204.08 107.64 201.66C114.15 196.66 116.52 199.46 113.5 189.94C110.48 180.42 106.22 179.16 106.22 179.16C106.22 179.16 94.5799 173.39 86.8799 174.81C83.9842 176.125 81.244 177.758 78.7099 179.68C78.7099 179.68 77.3899 179.56 72.6499 178.68C69.9099 178.34 67.7299 182.37 66.4199 186.56Z" fill="#EFC5CA"/>
<path d="M66.4199 186.56C65.4199 189.94 64.1699 197.01 66.6599 198.46C69.1499 199.91 72.3799 201.39 72.3799 201.39L72.8099 199.06C73.8929 193.15 75.568 187.365 77.8099 181.79L78.6599 179.68C78.6599 179.68 77.3399 179.56 72.5999 178.68C69.9099 178.34 67.7299 182.37 66.4199 186.56Z" fill="#EDAFB7"/>
<path d="M223.079 168.47C222.679 167.88 220.189 169.97 211.909 168.47C209.692 168.105 207.685 166.939 206.27 165.194C204.854 163.449 204.128 161.245 204.229 159C204.429 153.21 190.409 147.77 195.989 136.8C199.779 129.42 194.499 118.54 201.079 113.46C213.349 103.78 200.279 101.78 210.659 90.3097C217.659 82.5297 207.559 73.3097 216.829 63.9797C223.419 57.3997 222.829 51.5498 222.179 42.2698C221.529 32.9898 232.819 23.5698 240.309 18.0798C245.689 14.0798 250.089 8.43974 265.139 10.3997C275.829 11.7897 284.959 13.2898 292.639 27.1597C298.259 41.3597 310.289 41.4897 311.959 55.6097C312.159 77.0597 315.349 71.2198 323.129 79.3998C336.129 93.0598 322.129 99.7498 331.019 112.21C339.909 124.67 319.439 131.37 326.929 143.84C331.019 150.72 331.409 155.61 330.819 160.3C330.419 162.99 325.629 166.3 322.819 166.38C315.129 166.68 315.429 164.09 312.439 165.68C308.549 167.88 286.799 167.28 279.219 164.19C271.639 161.1 267.149 165.78 254.979 165.68C242.809 165.58 241.819 170.07 235.979 167.08C230.139 164.09 223.079 168.47 223.079 168.47Z" fill="#D2D3D4"/>
<path d="M251.359 94.5198V90.6898L279.359 88.7798V93.7798C279.363 95.3696 279.887 96.9145 280.851 98.1785C281.815 99.4425 283.167 100.356 284.699 100.78L293.099 103.12C293.099 103.12 290.099 118.54 266.459 118.4C239.149 118.23 237.649 104.31 237.649 104.31L246.369 101.44C247.822 100.955 249.085 100.026 249.98 98.7846C250.876 97.5428 251.358 96.0508 251.359 94.5198Z" fill="#D0845B"/>
<g opacity="0.1">
<path opacity="0.1" d="M251.159 96.1697L251.359 95.0898V89.1998L279.359 88.7798L279.279 94.2798C279.279 95.5498 271.349 100.95 264.359 101.02C257.369 101.09 251.159 97.3197 251.159 96.1697Z" fill="#4A2C03"/>
</g>
<path d="M236.419 50.5698H236.819C238.219 26.9298 246.989 12.5698 265.749 12.5698C280.509 12.5698 285.599 22.7498 289.389 38.0098C290.289 41.6998 290.389 46.0898 291.779 49.7798C291.907 50.0726 292.117 50.3224 292.383 50.4996C292.649 50.6769 292.96 50.7741 293.279 50.7798C295.369 50.8798 297.169 54.2698 297.169 58.5598C297.169 62.8498 295.369 66.9398 293.279 66.3398C292.579 66.1398 291.379 67.5398 291.279 68.1298C290.089 74.5198 289.189 79.5198 285.399 83.5098C278.819 90.3998 273.209 96.1298 264.799 96.4298C255.319 96.7598 248.659 88.3098 244.429 83.6198C239.799 78.4998 239.509 74.3198 238.509 68.2298C238.409 67.5398 237.419 66.1398 236.509 66.1398C234.409 65.9398 232.619 62.6498 232.619 58.3598C232.619 54.0698 234.319 50.5698 236.419 50.5698Z" fill="#D0845B"/>
<path d="M262.989 73.0098C262.447 73.0541 261.902 72.9684 261.399 72.7597C260.896 72.551 260.451 72.2253 260.099 71.8097C258.509 69.7197 260.299 66.1298 260.499 65.6298C260.552 65.5247 260.624 65.431 260.713 65.3541C260.802 65.2771 260.905 65.2183 261.016 65.1812C261.128 65.1441 261.245 65.1292 261.363 65.1376C261.48 65.1459 261.594 65.1772 261.699 65.2297C261.804 65.2823 261.898 65.355 261.975 65.4437C262.052 65.5325 262.111 65.6355 262.148 65.7469C262.185 65.8584 262.2 65.976 262.191 66.0931C262.183 66.2103 262.152 66.3247 262.099 66.4297C261.699 67.2297 260.799 69.7198 261.599 70.8198C262.099 71.4198 263.289 71.4198 264.289 71.2198C264.403 71.1918 264.522 71.1875 264.638 71.2073C264.754 71.227 264.865 71.2703 264.963 71.3345C265.062 71.3987 265.146 71.4824 265.211 71.5805C265.276 71.6786 265.32 71.789 265.341 71.9048C265.361 72.0206 265.358 72.1394 265.33 72.2538C265.303 72.3682 265.253 72.4758 265.183 72.57C265.112 72.6642 265.023 72.7429 264.921 72.8014C264.819 72.8598 264.706 72.8967 264.589 72.9098C264.059 72.9844 263.524 73.0178 262.989 73.0098Z" fill="#211E1F"/>
<path d="M274.749 61.6398C271.559 61.6398 271.559 56.6398 274.749 56.6398C277.939 56.6398 278.049 61.6398 274.749 61.6398Z" fill="#211E1F"/>
<path d="M251.409 61.9398C248.219 61.9398 248.219 56.9398 251.409 56.9398C254.599 56.9398 254.699 61.9398 251.409 61.9398Z" fill="#211E1F"/>
<path d="M293.279 50.7698C290.969 53.7698 288.699 52.5798 288.429 50.3498C287.879 45.7998 285.749 40.6498 280.959 39.6698C274.449 38.6698 263.349 42.1898 258.069 38.2898C253.289 34.7798 253.289 30.9098 252.809 30.8198C249.919 30.2198 253.209 39.1998 245.029 40.3898C233.659 42.0898 238.119 51.1798 237.519 53.5798C236.919 55.9798 234.059 50.1698 234.059 50.1698C234.059 50.1698 232.359 41.0898 234.649 36.2998C236.939 31.5098 235.989 13.1898 261.389 11.3198C290.389 9.23978 297.799 42.7498 297.799 42.7498L293.279 50.7698Z" fill="#D2D3D4"/>
<path d="M296.219 87.8898L295.639 88.0298C295.157 88.2425 294.636 88.3523 294.109 88.3523C293.582 88.3523 293.061 88.2425 292.579 88.0298L291.999 87.8898C291.849 87.8512 291.717 87.7629 291.625 87.6393C291.532 87.5157 291.484 87.3642 291.489 87.2098L292.489 67.8098C292.489 67.3798 293.019 67.1898 293.019 67.1898C293.74 66.9524 294.518 66.9524 295.239 67.1898C295.383 67.2219 295.512 67.2997 295.607 67.4115C295.703 67.5233 295.76 67.663 295.769 67.8098L296.769 87.2098C296.772 87.3697 296.719 87.5256 296.618 87.6499C296.517 87.7743 296.376 87.8592 296.219 87.8898Z" fill="#016D44"/>
<path d="M293.879 67.5398H294.079C294.339 67.5398 294.549 67.3293 294.549 67.0698V65.7198C294.549 65.4602 294.339 65.2498 294.079 65.2498H293.879C293.62 65.2498 293.409 65.4602 293.409 65.7198V67.0698C293.409 67.3293 293.62 67.5398 293.879 67.5398Z" fill="#A3A6B2"/>
<path d="M237.749 87.8498L237.159 87.9997C236.685 88.2005 236.175 88.304 235.659 88.304C235.144 88.304 234.634 88.2005 234.159 87.9997L233.569 87.8498C233.42 87.8148 233.289 87.7284 233.197 87.6058C233.106 87.4833 233.06 87.3324 233.069 87.1797L234.069 67.7798C234.069 67.4798 234.599 67.1598 234.599 67.1598C235.307 66.8702 236.101 66.8702 236.809 67.1598C236.954 67.1888 237.085 67.2657 237.181 67.3781C237.278 67.4905 237.333 67.632 237.339 67.7798L238.339 87.1797C238.345 87.3456 238.287 87.5075 238.177 87.6321C238.068 87.7567 237.914 87.8346 237.749 87.8498Z" fill="#016D44"/>
<path d="M235.539 67.4998H235.739C235.999 67.4998 236.209 67.2894 236.209 67.0298V65.6798C236.209 65.4202 235.999 65.2098 235.739 65.2098H235.539C235.28 65.2098 235.069 65.4202 235.069 65.6798V67.0298C235.069 67.2894 235.28 67.4998 235.539 67.4998Z" fill="#A3A6B2"/>
<path d="M280.399 58.9798C281.079 58.9742 281.755 59.0824 282.399 59.2998C282.897 59.4927 283.373 59.7374 283.819 60.0298C283.914 60.0794 283.997 60.1482 284.064 60.2318C284.13 60.3153 284.179 60.4119 284.206 60.5152C284.233 60.6185 284.239 60.7264 284.222 60.832C284.205 60.9375 284.167 61.0384 284.109 61.1283C284.051 61.2182 283.975 61.295 283.886 61.354C283.797 61.4129 283.697 61.4527 283.591 61.4707C283.486 61.4887 283.378 61.4846 283.274 61.4586C283.171 61.4326 283.074 61.3853 282.989 61.3198L282.439 60.9898L282.129 60.8298H282.039C282.169 60.8898 282.039 60.8298 282.039 60.8298H281.949C281.703 60.7386 281.448 60.6717 281.189 60.6298H281.099C281.099 60.6298 280.919 60.6298 281.099 60.6298C281.279 60.6298 281.099 60.6298 281.099 60.6298H280.989H280.449C280.246 60.6272 280.051 60.5452 279.908 60.4014C279.764 60.2575 279.682 60.0632 279.679 59.8598C279.682 59.6554 279.763 59.46 279.907 59.3145C280.051 59.1691 280.245 59.085 280.449 59.0798L280.399 58.9798Z" fill="#1F1F1C"/>
<path d="M280.069 61.5898C281.364 62.1966 282.472 63.1393 283.279 64.3198C283.382 64.4966 283.412 64.7068 283.361 64.9051C283.311 65.1033 283.184 65.2738 283.009 65.3798C282.83 65.4769 282.621 65.5019 282.424 65.4499C282.227 65.3979 282.057 65.2727 281.949 65.0998L281.859 64.9898C281.857 64.9665 281.857 64.9431 281.859 64.9198C282.009 65.1398 281.949 65.0398 281.859 64.9898L281.619 64.6998C281.419 64.4709 281.205 64.2538 280.979 64.0498C280.859 63.9298 280.729 63.8198 280.599 63.7098L280.489 63.6298L280.579 63.6998L280.509 63.6398L280.279 63.4798C279.964 63.2654 279.629 63.0812 279.279 62.9298C279.107 62.8277 278.982 62.6628 278.929 62.4698C278.902 62.3695 278.896 62.2648 278.909 62.1618C278.923 62.0589 278.957 61.9596 279.009 61.8698C279.058 61.7836 279.125 61.7082 279.204 61.648C279.283 61.5879 279.373 61.5443 279.469 61.5198C279.668 61.478 279.875 61.5026 280.059 61.5898H280.069Z" fill="#1F1F1C"/>
<path d="M246.049 59.3198H245.539H245.309C245.379 59.3198 245.479 59.3198 245.309 59.3198H245.219C244.954 59.3686 244.693 59.4389 244.439 59.5298L244.269 59.5898H244.349H244.269L243.959 59.7498C243.762 59.8512 243.572 59.9648 243.389 60.0898C243.211 60.1893 243 60.2158 242.803 60.1636C242.605 60.1114 242.435 59.9845 242.329 59.8098C242.231 59.6318 242.205 59.4232 242.255 59.2264C242.305 59.0295 242.428 58.8591 242.599 58.7498C243.047 58.4566 243.527 58.2151 244.029 58.0298C244.672 57.8064 245.349 57.6981 246.029 57.7098C246.13 57.7098 246.23 57.7297 246.324 57.7684C246.417 57.8071 246.502 57.8638 246.574 57.9353C246.645 58.0068 246.702 58.0917 246.741 58.1851C246.779 58.2785 246.799 58.3786 246.799 58.4797C246.799 58.5809 246.779 58.681 246.741 58.7744C246.702 58.8678 246.645 58.9527 246.574 59.0242C246.502 59.0957 246.417 59.1525 246.324 59.1912C246.23 59.2299 246.13 59.2498 246.029 59.2498L246.049 59.3198Z" fill="#1F1F1C"/>
<path d="M246.399 61.8998C246.05 62.0534 245.716 62.2374 245.399 62.4498L245.179 62.6098C245.179 62.6098 245.009 62.7498 245.179 62.6098L245.079 62.6898C244.942 62.7952 244.812 62.9088 244.689 63.0298C244.463 63.2339 244.25 63.4509 244.049 63.6798L243.819 63.9598C243.699 64.1198 243.939 63.8098 243.819 63.9598L243.729 64.0798C243.619 64.2505 243.453 64.3777 243.259 64.4398C243.059 64.489 242.849 64.4604 242.669 64.3598C242.492 64.2554 242.364 64.0857 242.312 63.8873C242.259 63.6889 242.287 63.4778 242.389 63.2998C243.199 62.1219 244.307 61.1798 245.599 60.5698C245.785 60.4772 245.997 60.4524 246.199 60.4998C246.393 60.5513 246.558 60.6771 246.659 60.8498C246.759 61.0284 246.785 61.2386 246.733 61.4362C246.681 61.6339 246.554 61.8037 246.379 61.9098L246.399 61.8998Z" fill="#1F1F1C"/>
<path d="M284.179 49.0898C284.378 49.0877 284.571 49.0235 284.731 48.9061C284.891 48.7888 285.01 48.6242 285.072 48.4355C285.134 48.2468 285.135 48.0435 285.075 47.8541C285.016 47.6648 284.898 47.4989 284.739 47.3798C282.562 46.024 280.135 45.1168 277.602 44.7115C275.069 44.3063 272.481 44.4111 269.989 45.0198C269.745 45.0741 269.533 45.2232 269.399 45.4342C269.265 45.6452 269.22 45.9008 269.274 46.1448C269.329 46.3888 269.478 46.6011 269.689 46.7352C269.9 46.8693 270.155 46.9141 270.399 46.8597C274.913 45.7681 279.676 46.505 283.649 48.9098C283.805 49.019 283.989 49.0815 284.179 49.0898Z" fill="#211E1F"/>
<path d="M244.689 49.0898C244.54 49.0864 244.393 49.0496 244.26 48.9821C244.127 48.9147 244.01 48.8182 243.919 48.6998C243.846 48.599 243.794 48.4846 243.765 48.3634C243.737 48.2422 243.733 48.1166 243.753 47.9938C243.774 47.871 243.818 47.7535 243.885 47.6481C243.951 47.5427 244.037 47.4515 244.139 47.3798C246.317 46.0201 248.745 45.1106 251.28 44.7053C253.815 44.2999 256.406 44.4069 258.899 45.0198C259.02 45.0461 259.134 45.0959 259.236 45.1663C259.338 45.2368 259.424 45.3267 259.491 45.4307C259.558 45.5347 259.604 45.6508 259.626 45.7725C259.648 45.8942 259.645 46.019 259.619 46.1398C259.593 46.2606 259.543 46.3751 259.473 46.4767C259.402 46.5782 259.312 46.6649 259.208 46.7318C259.104 46.7986 258.988 46.8443 258.866 46.8663C258.745 46.8883 258.62 46.886 258.499 46.8598C253.982 45.7676 249.216 46.5045 245.239 48.9098C245.078 49.0227 244.886 49.0853 244.689 49.0898Z" fill="#211E1F"/>
<path d="M259.899 82.0298C260.881 82.2839 261.886 82.4347 262.899 82.4797C266.359 82.5897 269.139 81.5898 270.809 79.6898C270.896 79.588 270.963 79.47 271.005 79.3426C271.046 79.2151 271.063 79.0807 271.052 78.947C271.042 78.8132 271.006 78.6829 270.945 78.5632C270.884 78.4436 270.801 78.3371 270.699 78.2498C270.597 78.1624 270.479 78.096 270.352 78.0543C270.224 78.0125 270.09 77.9963 269.956 78.0065C269.823 78.0167 269.692 78.0532 269.573 78.1138C269.453 78.1744 269.346 78.258 269.259 78.3597C268.029 79.8097 265.799 80.4697 263.019 80.3597C260.239 80.2497 258.019 79.2497 257.329 78.3597C257.252 78.2466 257.153 78.1504 257.038 78.077C256.923 78.0036 256.794 77.9547 256.659 77.9331C256.524 77.9116 256.386 77.9179 256.254 77.9517C256.121 77.9855 255.997 78.0461 255.889 78.1298C255.671 78.295 255.525 78.5382 255.482 78.8085C255.44 79.0787 255.503 79.3551 255.659 79.5798C256.745 80.8641 258.244 81.7304 259.899 82.0298Z" fill="#211E1F"/>
<path d="M196.809 151C206.609 133.4 209.699 116.25 223.319 108.66C224.809 107.83 239.509 102.59 243.099 101.34C243.427 101.222 243.778 101.18 244.125 101.218C244.471 101.256 244.805 101.373 245.099 101.56C247.339 102.94 254.179 106.03 266.989 105.78C279.489 105.52 284.989 102.43 287.489 101.2C287.618 101.142 287.758 101.112 287.899 101.112C288.04 101.112 288.18 101.142 288.309 101.2C289.769 101.91 293.859 102.62 301.019 105.59C302.829 106.34 305.489 107.31 307.959 108.46C309.065 108.879 310.113 109.437 311.079 110.12C311.571 110.426 312.045 110.76 312.499 111.12C327.869 122.48 354.619 202.58 344.569 202.22C331.349 201.75 279.059 202.7 258.929 202.86C235.049 203.04 201.499 201.7 187.599 201.86C178.779 201.95 195.339 153.64 196.809 151Z" fill="#71AF88"/>
</g>
</svg>
