<svg width="24" height="24" viewBox="0 0 24 24" fill="none" xmlns="http://www.w3.org/2000/svg">
<path fill-rule="evenodd" clip-rule="evenodd" d="M15.7644 6.19355C15.7644 8.41694 13.9445 10.2194 11.6996 10.2194C9.45464 10.2194 7.63478 8.41694 7.63478 6.19355C7.63478 3.97016 9.45464 2.16774 11.6996 2.16774C13.9445 2.16774 15.7644 3.97016 15.7644 6.19355ZM15.3508 11.2224C16.9269 10.0978 17.9531 8.26438 17.9531 6.19355C17.9531 2.77295 15.1533 0 11.6996 0C8.24584 0 5.44604 2.77295 5.44604 6.19355C5.44604 8.19646 6.40598 9.97731 7.89505 11.1094C3.6749 12.3622 0.599609 16.2383 0.599609 20.8258C0.599609 22.5788 2.03451 24 3.80454 24H20.2044C21.6377 24 22.7996 22.8492 22.7996 21.4296C22.7996 16.6714 19.6771 12.6356 15.3508 11.2224ZM2.78834 20.8258C2.78834 16.4217 6.39308 12.8516 10.8398 12.8516H11.9498C16.7332 12.8516 20.6109 16.6921 20.6109 21.4296C20.6109 21.652 20.4289 21.8322 20.2044 21.8322H3.80454C3.24331 21.8322 2.78834 21.3816 2.78834 20.8258Z" fill="#002E6E"/>
</svg>
