<svg width="93" height="22" viewBox="0 0 93 22" fill="none" xmlns="http://www.w3.org/2000/svg">
<g clip-path="url(#clip0_4209_161623)">
<path fill-rule="evenodd" clip-rule="evenodd" d="M38.1586 2.73419C38.6563 2.71846 39.149 2.83944 39.5852 3.08452C39.9782 3.33202 40.2847 3.69981 40.461 4.13551C40.6725 4.67754 40.7739 5.2578 40.759 5.84106V10.4968H38.4836V5.99779C38.4908 5.73675 38.4479 5.47679 38.3572 5.2326C38.2809 5.04196 38.1442 4.88292 37.969 4.78085C37.7723 4.67404 37.5501 4.6261 37.3279 4.64256C37.1404 4.63948 36.9539 4.67071 36.7771 4.73476C36.6147 4.7936 36.4667 4.88799 36.3437 5.01133C36.224 5.12744 36.1261 5.26491 36.0548 5.41698C35.9817 5.57549 35.9447 5.74884 35.9465 5.92404V10.5337H33.6892V-0.114555H35.9465V3.82205C35.9854 3.77514 36.0216 3.72588 36.0548 3.67455C36.3333 3.3888 36.6608 3.15758 37.0209 2.99232C37.3797 2.83019 37.7664 2.74244 38.1586 2.73419ZM29.0107 6.23419C29.0454 6.08689 29.084 5.92319 29.1373 5.73938L30.6001 0.45677H32.9837L29.9951 10.5334H28.1893L25.9952 5.09404L23.9637 10.5334H22.0675L19.106 0.45677H21.5529L23.0337 5.75782C23.0869 5.95983 23.1338 6.16839 23.1796 6.37245L23.2052 6.48614C23.2174 6.54008 23.2305 6.59355 23.2435 6.64656C23.2882 6.8291 23.3316 7.00611 23.3316 7.17758C23.339 7.13043 23.3456 7.08598 23.3521 7.04296L23.3521 7.04294L23.3521 7.04289C23.377 6.87568 23.3987 6.7302 23.449 6.53224L23.4653 6.4677C23.5233 6.23877 23.5832 6.00215 23.6657 5.75782L25.1284 1.72902H27.0877L28.5143 5.73016L28.556 5.86108L28.556 5.8612L28.5561 5.86136L28.5561 5.8614C28.6481 6.14994 28.7314 6.41148 28.7942 6.65209C28.8359 6.80368 28.8691 6.95759 28.8936 7.11305V6.89179C28.8936 6.74428 28.9297 6.56911 28.9748 6.38473C28.9866 6.3365 28.9984 6.28637 29.0107 6.23419ZM8.33388 0.45677H0L1.02029 2.62329H2.93447V10.5334H5.32718V2.62329H8.33388V0.45677ZM12.7391 3.01985C13.1682 3.20879 13.5553 3.48481 13.8768 3.83114C14.1894 4.18584 14.4316 4.59913 14.5901 5.04808C14.7633 5.54443 14.84 6.07055 14.8158 6.59691V7.2146H9.68725C9.72396 7.3754 9.78166 7.53044 9.8588 7.67556C10.0385 7.99044 10.3056 8.24388 10.6263 8.40388C10.9977 8.58575 11.4064 8.67426 11.8181 8.66201C12.1068 8.66702 12.3941 8.62022 12.6669 8.52373C12.9594 8.40182 13.2332 8.23723 13.4795 8.03511L14.5539 9.55628C14.2801 9.8059 13.9768 10.0196 13.651 10.1924C13.329 10.3546 12.9896 10.4784 12.6398 10.5612C12.2908 10.6456 11.933 10.6859 11.5743 10.681C10.8247 10.7003 10.0824 10.5259 9.41637 10.174C8.82562 9.85026 8.33478 9.36504 7.9988 8.77265C7.65 8.16022 7.47201 7.46199 7.48414 6.75364C7.47898 6.20197 7.57705 5.65437 7.77307 5.14027C7.94881 4.66674 8.21594 4.2341 8.55861 3.86802C8.89979 3.50478 9.31202 3.21894 9.76851 3.02907C10.2533 2.82965 10.7718 2.72942 11.2944 2.73405C11.7898 2.73089 12.2808 2.82803 12.7391 3.01985ZM10.3825 4.89135C10.1263 5.03949 9.92133 5.26491 9.7956 5.5367C9.76312 5.62088 9.73598 5.7071 9.71434 5.79484H12.6849C12.6643 5.60373 12.5993 5.42041 12.4953 5.26012C12.3664 5.07339 12.1921 4.92408 11.9897 4.82682C11.7717 4.71367 11.5299 4.6567 11.2854 4.66087C10.9699 4.65583 10.6586 4.73529 10.3825 4.89135ZM84.9468 2.78C84.7921 2.74962 84.6349 2.73418 84.4773 2.7339C84.0897 2.73447 83.7083 2.83263 83.3667 3.0197C83.0154 3.21351 82.7078 3.48048 82.4638 3.80333C82.4192 3.86022 82.3815 3.92061 82.3444 3.98019C82.3213 4.01716 82.2984 4.05382 82.2742 4.08913V2.89063H80.0801V10.5334H82.3464V6.70739C82.3433 6.49629 82.3801 6.28656 82.4548 6.0897C82.5205 5.91264 82.6185 5.74995 82.7437 5.6103C82.8704 5.47612 83.0245 5.37223 83.1952 5.30606C83.3789 5.23129 83.5752 5.19371 83.773 5.19543C83.9556 5.19306 84.1377 5.21475 84.3148 5.25997C84.4604 5.29421 84.6004 5.35013 84.7301 5.42591L85.3531 2.88141L84.9468 2.78ZM76.0515 0.622817C76.6516 0.878237 77.1951 1.25449 77.6496 1.72912C78.1147 2.18229 78.4836 2.72833 78.7331 3.33327C78.9912 3.99595 79.12 4.70371 79.1124 5.41681C79.1234 6.14217 78.9945 6.86266 78.7331 7.53723C78.4901 8.16196 78.121 8.72739 77.6496 9.19669C77.1975 9.65879 76.6606 10.0253 76.0695 10.2753C75.4234 10.5379 74.7334 10.6694 74.038 10.6625C73.3336 10.6714 72.6344 10.5398 71.9793 10.2753C71.3694 10.0231 70.8153 9.64831 70.35 9.1732C69.8847 8.69808 69.5176 8.13235 69.2706 7.50958C69.0127 6.84363 68.8839 6.13289 68.8914 5.41681C68.8849 4.72349 69.0075 4.03522 69.2525 3.38858C69.4959 2.76362 69.8617 2.19598 70.3275 1.7204C70.7933 1.24483 71.3492 0.871343 71.9613 0.622817C73.2755 0.094214 74.7372 0.094214 76.0515 0.622817ZM75.916 7.54645C76.1604 7.27989 76.3507 6.96656 76.4759 6.62453C76.6125 6.23739 76.6798 5.82829 76.6745 5.41681C76.6819 5.03155 76.6238 4.64789 76.5029 4.28285C76.3765 3.94146 76.1864 3.62837 75.9431 3.36093C75.7084 3.0958 75.4183 2.88787 75.0944 2.75246C74.7619 2.60226 74.4016 2.5268 74.038 2.5312C73.6734 2.51817 73.3103 2.58415 72.9725 2.7248C72.6309 2.8563 72.3224 3.0642 72.0696 3.33327C71.8261 3.59881 71.6387 3.9126 71.5189 4.25519C71.3887 4.62786 71.3245 5.02119 71.3292 5.41681C71.3344 5.83366 71.414 6.24604 71.564 6.63375C71.6796 6.97838 71.8676 7.29304 72.1148 7.55567C72.3619 7.82138 72.6606 8.03158 72.9917 8.17285C73.3228 8.31413 73.6792 8.38338 74.038 8.37618C74.3914 8.37473 74.741 8.3027 75.0673 8.16414C75.39 8.02212 75.6793 7.81155 75.916 7.54645ZM90.8783 2.89134V3.81326C90.7468 3.622 90.592 3.44852 90.4178 3.29699C90.1819 3.10592 89.9164 2.95636 89.6322 2.85446C89.1825 2.70825 88.7068 2.66466 88.2387 2.72679C87.7707 2.78892 87.3217 2.95524 86.9235 3.21401C86.4073 3.56003 85.9949 4.04499 85.7317 4.61533C85.4251 5.25456 85.2733 5.95964 85.2892 6.67122C85.2762 7.3766 85.4279 8.07501 85.7317 8.70867C85.9931 9.27706 86.3983 9.76397 86.9055 10.1192C87.4045 10.4601 87.9936 10.637 88.5939 10.6263C88.9194 10.6305 89.2431 10.5775 89.551 10.4695C89.8426 10.3699 90.1169 10.2236 90.3636 10.0362C90.5441 9.90697 90.7053 9.7517 90.8422 9.57528V10.4972H93.1265V2.89134H90.8783ZM90.1018 8.47819C89.8312 8.6497 89.5172 8.73626 89.1989 8.72711C88.8932 8.73755 88.5914 8.65563 88.3312 8.49162C88.071 8.32762 87.864 8.08883 87.7361 7.80519C87.5836 7.4707 87.5095 7.10457 87.5194 6.73576C87.5104 6.36703 87.5846 6.00113 87.7361 5.66633C87.8598 5.37635 88.0638 5.12961 88.323 4.95645C88.5918 4.78071 88.9071 4.6938 89.2259 4.70753C89.5443 4.69838 89.8583 4.78493 90.1289 4.95645C90.3884 5.13177 90.5948 5.37764 90.7248 5.66633C90.8689 6.0033 90.9397 6.36815 90.9324 6.73576C90.9406 7.10344 90.8697 7.46848 90.7248 7.80519C90.5831 8.08475 90.3672 8.31797 90.1018 8.47819ZM51.826 0.964108H54.0832V2.89093H55.5279V4.90994H54.0832V10.5337H51.826V4.90994H50.4987V2.89093H51.826V0.964108ZM47.339 3.84921C47.2067 3.65565 47.0487 3.48188 46.8694 3.33293C46.6363 3.14276 46.3739 2.99323 46.0929 2.89041C45.6432 2.7442 45.1675 2.70061 44.6994 2.76274C44.2314 2.82487 43.7824 2.99119 43.3842 3.24996C42.868 3.59598 42.4556 4.08094 42.1924 4.65128C41.8857 5.29051 41.734 5.99559 41.7499 6.70717C41.7369 7.41255 41.8886 8.11096 42.1924 8.74462C42.4463 9.30968 42.8419 9.79626 43.3391 10.1552C43.8353 10.4948 44.4212 10.6717 45.0185 10.6622C45.3681 10.6748 45.717 10.6217 46.0478 10.5055C46.3394 10.4058 46.6137 10.2596 46.8604 10.0722C47.0389 9.94047 47.1998 9.78551 47.339 9.61123V10.5331H49.6233V2.89041H47.339V3.84921ZM46.5625 8.45882C46.2919 8.63033 45.9779 8.71689 45.6595 8.70774C45.3539 8.71818 45.0521 8.63626 44.7919 8.47226C44.5317 8.30825 44.3247 8.06946 44.1968 7.78582C44.0443 7.45133 43.9701 7.0852 43.9801 6.71639C43.9838 6.3409 44.0735 5.9715 44.242 5.63774C44.3657 5.34777 44.5697 5.10102 44.8289 4.92786C45.0976 4.75213 45.4129 4.66521 45.7318 4.67894C46.0501 4.66979 46.3641 4.75635 46.6347 4.92786C46.8942 5.10319 47.1006 5.34905 47.2306 5.63774C47.3747 5.97471 47.4455 6.33956 47.4383 6.70717C47.4464 7.07486 47.3755 7.4399 47.2306 7.7766C47.081 8.07271 46.8484 8.31663 46.5625 8.47726V8.45882ZM61.1195 7.98004C61.1862 7.81329 61.22 7.63469 61.2188 7.45454V2.89103H63.5212V10.5338H61.3994L61.2459 9.52887C61.1969 9.61456 61.1394 9.69489 61.0743 9.76857C60.8201 10.0519 60.5132 10.2806 60.1714 10.4416C59.7621 10.6291 59.3157 10.7167 58.8675 10.6975C58.4193 10.6783 57.9816 10.5528 57.5891 10.3309C57.1919 10.0767 56.8776 9.70768 56.6862 9.27073C56.4604 8.74875 56.3524 8.18162 56.3702 7.61127V2.89103H58.6365V7.26094C58.6232 7.54507 58.6725 7.82863 58.7809 8.09067C58.8653 8.3019 59.0141 8.47972 59.2053 8.59773C59.4085 8.72555 59.644 8.78966 59.8825 8.78211C60.0675 8.78134 60.251 8.747 60.4242 8.6807C60.583 8.61967 60.7276 8.52547 60.8486 8.40412C60.9653 8.28226 61.0573 8.13816 61.1195 7.98004Z" fill="#15284C"/>
<path fill-rule="evenodd" clip-rule="evenodd" d="M16.7395 14.2756H17.8049V20.7843H16.7395V14.2756ZM14.2845 16.4426C14.4089 16.5505 14.5156 16.6782 14.6005 16.8206V16.1753H15.6749V20.7849H14.5915V20.1211C14.4898 20.2617 14.368 20.386 14.2303 20.4899C14.0676 20.6037 13.8917 20.6966 13.7066 20.7664C13.5086 20.8337 13.3013 20.868 13.0926 20.8679C12.7294 20.8705 12.3738 20.7613 12.0723 20.5544C11.7609 20.337 11.5092 20.0418 11.341 19.697C11.157 19.3093 11.0642 18.8832 11.0701 18.4524C11.0626 18.0245 11.1555 17.6009 11.341 17.217C11.5079 16.8657 11.7674 16.5688 12.0904 16.3596C12.4093 16.1554 12.7794 16.0497 13.1558 16.0554C13.3708 16.0493 13.5851 16.0837 13.7879 16.1568C13.9706 16.2168 14.1396 16.314 14.2845 16.4426ZM13.3815 19.909C13.6144 19.9163 13.844 19.852 14.0407 19.7247C14.2136 19.6024 14.3533 19.4375 14.447 19.2453C14.5674 18.9988 14.6322 18.7278 14.6366 18.4524C14.6392 18.1951 14.5868 17.9402 14.4831 17.7057C14.3862 17.4969 14.2326 17.3209 14.0407 17.1986C13.844 17.0712 13.6144 17.007 13.3815 17.0142C13.1516 17.0071 12.9249 17.0714 12.7315 17.1986C12.5401 17.3189 12.3889 17.4957 12.2981 17.7057C12.1943 17.9402 12.1419 18.1951 12.1446 18.4524C12.1416 18.7157 12.194 18.9767 12.2981 19.2176C12.3917 19.4257 12.5422 19.6018 12.7315 19.7247C12.9249 19.8518 13.1516 19.9161 13.3815 19.909ZM25.5592 16.2669C25.2848 16.1083 24.9711 16.0346 24.6563 16.0549C24.4129 16.0517 24.1721 16.1053 23.9521 16.2116C23.7281 16.3076 23.5254 16.4487 23.3561 16.6265C23.306 16.6839 23.2607 16.7456 23.2207 16.8108V14.2756H22.2094V20.7843H23.2658V18.0186C23.2637 17.8878 23.2915 17.7584 23.3471 17.6406C23.3997 17.5209 23.4766 17.414 23.5728 17.3271C23.6676 17.2322 23.7816 17.1598 23.9069 17.1151C24.042 17.0615 24.1864 17.0364 24.3313 17.0413C24.4969 17.0296 24.6625 17.0647 24.8098 17.1427C24.9461 17.2162 25.0518 17.3373 25.1078 17.4838C25.1742 17.6697 25.2048 17.8669 25.1981 18.0647V20.8304H26.2635V17.954C26.2719 17.592 26.2105 17.2317 26.0829 16.8938C25.9807 16.6317 25.7966 16.4113 25.5592 16.2669ZM19.4394 14.9667H20.4958V16.1467H21.489V17.1516H20.4958V20.784H19.4394V17.1516H18.5455V16.1467H19.4394V14.9667ZM84.2944 20.7935C84.0969 20.5931 83.9185 20.3739 83.7617 20.139C83.6562 19.9504 83.5743 19.7491 83.5179 19.5397C83.5052 19.3925 83.5052 19.2444 83.5179 19.0972V14.2756H82.4163V16.7094C82.3393 16.6247 82.2547 16.5475 82.1635 16.479C81.8193 16.2253 81.4052 16.0897 80.9807 16.0917C80.6 16.0848 80.2259 16.1939 79.9062 16.4052C79.5806 16.6138 79.318 16.9106 79.1478 17.2626C78.9623 17.6464 78.8694 18.07 78.8769 18.498C78.8666 18.9302 78.9629 19.3582 79.1568 19.7426C79.3272 20.092 79.5899 20.3858 79.9153 20.5907C80.2349 20.802 80.609 20.9111 80.9897 20.9042C81.1957 20.9073 81.4005 20.873 81.5947 20.8028C81.7823 20.7433 81.9592 20.653 82.1184 20.5354C82.2444 20.4327 82.3514 20.3078 82.4344 20.1666V20.7751L84.2944 20.7935ZM81.8475 19.761C81.6516 19.8911 81.422 19.9585 81.1884 19.9546C80.9575 19.9584 80.7309 19.8909 80.5383 19.761C80.3451 19.6295 80.1893 19.4482 80.0868 19.2355C79.9857 18.992 79.9336 18.7302 79.9336 18.4657C79.9336 18.2012 79.9857 17.9394 80.0868 17.6959C80.1865 17.4788 80.3427 17.2938 80.5383 17.1612C80.7335 17.038 80.9589 16.9741 81.1884 16.9768C81.4206 16.9743 81.6489 17.0382 81.8475 17.1612C82.038 17.2971 82.1905 17.4814 82.2899 17.6959C82.391 17.9394 82.4431 18.2012 82.4431 18.4657C82.4431 18.7302 82.391 18.992 82.2899 19.2355C82.1879 19.4457 82.0357 19.6264 81.8475 19.761ZM1.37134 17.1795H4.1162V14.6258H5.23581V20.7842H4.1162V18.2489H1.37134V20.7842H0.251732V14.6258H1.37134V17.1795ZM9.86786 16.7001C9.67514 16.4965 9.44503 16.3336 9.19068 16.2207C8.92963 16.1011 8.64609 16.0413 8.36 16.0456C8.05089 16.0452 7.74452 16.1046 7.45708 16.2207C7.18097 16.3394 6.93194 16.5151 6.72572 16.737C6.52213 16.9638 6.36005 17.2261 6.24718 17.5114C6.13175 17.8301 6.07363 18.1674 6.07563 18.5071C6.05285 18.9274 6.13683 19.3466 6.31941 19.724C6.53736 20.0846 6.85024 20.3753 7.22233 20.563C7.60831 20.7723 8.04043 20.8771 8.47738 20.8672C8.69656 20.8665 8.91486 20.8387 9.12747 20.7842C9.3418 20.7237 9.55032 20.6435 9.75048 20.5445C9.9418 20.4401 10.1206 20.3132 10.2832 20.1666L9.75048 19.4198C9.58168 19.5758 9.38967 19.7034 9.18165 19.7978C8.99413 19.8695 8.79493 19.9039 8.59475 19.8992C8.31708 19.9067 8.04163 19.8467 7.79116 19.724C7.55965 19.6246 7.36186 19.4579 7.22233 19.2446C7.14294 19.0892 7.09098 18.9207 7.06883 18.7468H10.4096V18.3227C10.4155 18.0091 10.3666 17.6969 10.2651 17.4008C10.1797 17.1426 10.0447 16.9043 9.86786 16.7001ZM7.6467 17.1703C7.86644 17.053 8.11218 16.9959 8.36 17.0044C8.53564 17.0011 8.70934 17.0423 8.86563 17.1242C9.01232 17.2003 9.1392 17.3109 9.23582 17.4469C9.33605 17.587 9.39552 17.7532 9.40738 17.9263V17.9724H7.11398C7.13775 17.8609 7.17411 17.7526 7.22233 17.6497C7.31148 17.4487 7.45983 17.2811 7.6467 17.1703ZM59.2113 16.2207C59.4616 16.3362 59.6883 16.4988 59.8795 16.7001C60.0822 16.8975 60.2422 17.1362 60.349 17.4007C60.4505 17.6968 60.4994 18.009 60.4935 18.3226V18.7099H57.1437C57.1658 18.8837 57.2178 19.0522 57.2972 19.2077C57.4229 19.4282 57.6077 19.6073 57.8299 19.724C58.0768 19.8476 58.3496 19.9077 58.6245 19.8991C58.8246 19.9038 59.0238 19.8694 59.2113 19.7977C59.4223 19.7036 59.6173 19.576 59.7892 19.4197L60.3129 20.1665C60.1519 20.3152 59.9729 20.4423 59.7802 20.5445C59.58 20.6434 59.3715 20.7236 59.1572 20.7842C58.9446 20.8386 58.7263 20.8665 58.5071 20.8672C58.0703 20.8758 57.6384 20.7711 57.252 20.5629C56.8965 20.3683 56.5999 20.0782 56.3943 19.724C56.1925 19.3519 56.0898 18.9323 56.0963 18.507C56.0898 18.1669 56.1481 17.8288 56.2679 17.5114C56.374 17.2247 56.5335 16.9618 56.7374 16.7369C56.9436 16.5151 57.1926 16.3393 57.4687 16.2207C57.7562 16.1046 58.0625 16.0451 58.3716 16.0455C58.6606 16.042 58.9469 16.1017 59.2113 16.2207ZM58.3716 17.0043C58.1239 16.997 57.8785 17.0541 57.6583 17.1702C57.4681 17.2796 57.3165 17.4473 57.2249 17.6496C57.1798 17.753 57.1465 17.8612 57.1256 17.9723H59.419V17.9262C59.4072 17.7531 59.3477 17.587 59.2475 17.4468C59.1531 17.3088 59.0256 17.1977 58.8773 17.1241C58.721 17.0422 58.5473 17.0011 58.3716 17.0043ZM67.8158 14.2756H66.7504V20.7843H67.8158V14.2756ZM34.1384 17.1981V16.479V14.6351H35.2128V20.7844H34.3009L31.0504 16.396C31.0504 16.4501 31.044 16.4899 31.0377 16.5283V16.5283C31.0259 16.6012 31.0149 16.6691 31.0504 16.8201C31.1046 17.0506 31.1046 17.2534 31.1046 17.4193V17.8342V18.1384V20.7936H29.994V14.6351H31.0053L34.1384 19.1249C34.1428 19.0758 34.1428 19.0265 34.1384 18.9774V18.4335V17.8434V17.1981ZM72.1235 16.8206C72.0387 16.6782 71.932 16.5505 71.8075 16.4426C71.6627 16.314 71.4937 16.2168 71.3109 16.1568C71.1081 16.0837 70.8939 16.0493 70.6789 16.0554C70.3024 16.0497 69.9324 16.1554 69.6134 16.3596C69.2905 16.5688 69.031 16.8657 68.864 17.217C68.6785 17.6009 68.5856 18.0245 68.5932 18.4524C68.5873 18.8832 68.68 19.3093 68.864 19.697C69.0322 20.0418 69.284 20.337 69.5954 20.5544C69.8969 20.7613 70.2524 20.8705 70.6157 20.8679C70.8243 20.8672 71.0315 20.833 71.2297 20.7664C71.4139 20.6947 71.5896 20.602 71.7533 20.4899C71.8911 20.386 72.0128 20.2617 72.1145 20.1211V20.7849H73.198V16.1753H72.1235V16.8206ZM71.5547 19.7247C71.3583 19.8449 71.1336 19.9084 70.9046 19.9084C70.6756 19.9084 70.4509 19.8449 70.2545 19.7247C70.0652 19.6018 69.9148 19.4257 69.8211 19.2176C69.7124 18.9782 69.6598 18.7162 69.6676 18.4524C69.6606 18.1946 69.7132 17.9388 69.8211 17.7057C69.912 17.4957 70.0631 17.3189 70.2545 17.1986C70.4509 17.0783 70.6756 17.0148 70.9046 17.0148C71.1336 17.0148 71.3583 17.0783 71.5547 17.1986C71.749 17.3208 71.9055 17.4965 72.0062 17.7057C72.1099 17.9402 72.1623 18.1951 72.1597 18.4524C72.1626 18.7157 72.1103 18.9767 72.0062 19.2176C71.9032 19.4251 71.7472 19.6003 71.5547 19.7247ZM64.2953 16.4426C64.4225 16.5504 64.5322 16.6779 64.6204 16.8206V16.1753H65.6858V20.7849H64.6113V20.1211C64.5041 20.2598 64.3796 20.3838 64.2411 20.4899C64.0784 20.6037 63.9025 20.6966 63.7175 20.7664C63.5195 20.8337 63.3121 20.868 63.1035 20.8679C62.7402 20.8705 62.3847 20.7613 62.0832 20.5544C61.7763 20.3318 61.5256 20.038 61.3518 19.697C61.1678 19.3093 61.0751 18.8832 61.081 18.4524C61.0734 18.0245 61.1663 17.6009 61.3518 17.217C61.5215 16.8676 61.7804 16.5714 62.1012 16.3596C62.4208 16.1568 62.7904 16.0513 63.1667 16.0554C63.3817 16.0493 63.5959 16.0837 63.7987 16.1568C63.9823 16.2148 64.1517 16.3122 64.2953 16.4426ZM63.3969 19.9097C63.6275 19.9097 63.8538 19.8457 64.0515 19.7247C64.2344 19.606 64.3837 19.4408 64.4849 19.2453C64.5937 19.0059 64.6463 18.7439 64.6384 18.4801C64.6454 18.2223 64.5928 17.9665 64.4849 17.7333C64.388 17.5246 64.2344 17.3486 64.0425 17.2263C63.8447 17.1052 63.6185 17.0413 63.3879 17.0413C63.1573 17.0413 62.9311 17.1052 62.7333 17.2263C62.5463 17.3518 62.3964 17.5271 62.2999 17.7333C62.1962 17.9679 62.1438 18.2227 62.1464 18.4801C62.1435 18.7434 62.1958 19.0043 62.2999 19.2453C62.4053 19.4407 62.5575 19.6057 62.7423 19.7247C62.9401 19.8457 63.1663 19.9097 63.3969 19.9097ZM55.2849 15.4186V14.6258H50.8516V15.7044H53.768L50.6259 19.9821V20.7842H55.3752V19.724H52.1428L55.2849 15.4186ZM76.7447 16.0558C77.0168 16.0654 77.2832 16.1377 77.524 16.2672C77.7614 16.4116 77.9455 16.632 78.0477 16.8941C78.1753 17.232 78.2367 17.5922 78.2283 17.9543V20.8031H77.1629V18.0373C77.1696 17.8396 77.1389 17.6424 77.0726 17.4565C77.0176 17.3122 76.9155 17.1917 76.7836 17.1154C76.6336 17.0356 76.4647 17.0005 76.2961 17.0139C76.1512 17.0091 76.0068 17.0341 75.8717 17.0877C75.7464 17.1325 75.6324 17.2049 75.5376 17.2997C75.4414 17.3866 75.3644 17.4935 75.3119 17.6132C75.2563 17.731 75.2285 17.8604 75.2306 17.9912V20.757H74.1742V16.1473H75.2126V16.8203L75.357 16.6267C75.5286 16.4517 75.7307 16.3109 75.953 16.2119C76.202 16.0996 76.4726 16.0462 76.7447 16.0558ZM40.034 16.7C39.8445 16.4967 39.6174 16.3337 39.3658 16.2206C39.1045 16.1019 38.8212 16.0421 38.5351 16.0455C38.226 16.0451 37.9197 16.1046 37.6322 16.2206C37.3561 16.3393 37.1071 16.5151 36.9009 16.7369C36.6943 16.9614 36.5318 17.2243 36.4223 17.5113C36.3026 17.8288 36.2443 18.1669 36.2508 18.507C36.2431 18.9336 36.3492 19.3543 36.5578 19.724C36.7599 20.0779 37.0535 20.3681 37.4065 20.5629C37.7962 20.7711 38.2309 20.8757 38.6706 20.8671C38.8897 20.8657 39.1079 20.8379 39.3207 20.7842C39.535 20.7236 39.7435 20.6434 39.9437 20.5445C40.1336 20.4422 40.3096 20.3151 40.4674 20.1665L39.9437 19.4197C39.7732 19.578 39.5779 19.7058 39.3658 19.7977C39.1785 19.8701 38.9792 19.9045 38.7789 19.8991C38.5042 19.9066 38.2317 19.8465 37.9844 19.724C37.7646 19.6071 37.5827 19.4278 37.4607 19.2077C37.3813 19.0522 37.3293 18.8837 37.3072 18.7098H40.6299V18.3226C40.6434 18.0093 40.5974 17.6962 40.4945 17.4007C40.3864 17.1392 40.2301 16.9013 40.034 16.7ZM37.8218 17.1702C38.0413 17.0521 38.2873 16.9949 38.5351 17.0043C38.7079 17.001 38.8787 17.0423 39.0317 17.1241C39.1827 17.1974 39.3132 17.3084 39.411 17.4468C39.5112 17.5869 39.5707 17.7531 39.5825 17.9262V17.9723H37.2891C37.3058 17.8602 37.3393 17.7514 37.3884 17.6496C37.48 17.4473 37.6316 17.2795 37.8218 17.1702ZM44.5766 16.8472L45.5788 19.1428L46.4998 16.1465H47.5833L46.0574 20.7838H45.2989L44.2245 18.2116L43.1951 20.7838H42.4457L40.9288 16.1465L42.0123 16.1373L42.9423 19.1796L43.9355 16.8472H44.5766Z" fill="#0C818F"/>
</g>
<defs>
<clipPath id="clip0_4209_161623">
<rect width="93" height="21.1364" fill="white"/>
</clipPath>
</defs>
</svg>
