<svg
  width="16"
  height="16"
  viewBox="0 0 16 16"
  fill="none"
  xmlns="http://www.w3.org/2000/svg"
>
  <path
    d="M1.75503 12.0598C1.72571 12.0919 1.70529 12.1312 1.69579 12.1737L1.13689 14.674C1.07308 14.9595 1.32722 15.2147 1.61294 15.152L4.11644 14.603C4.16831 14.5916 4.21521 14.564 4.25035 14.5242L4.35233 14.4086C4.42221 14.3294 4.41847 14.2095 4.34379 14.1349L2.1481 11.9392C2.06744 11.8585 1.93575 11.8615 1.85889 11.9458L1.75503 12.0598Z"
    fill="#FFFFFF"
  />
  <path
    d="M14.8233 1.51056C14.4941 1.18354 14.049 1 13.585 1C13.121 1 12.6758 1.18354 12.3466 1.51056L11.9074 1.94981L3.1978 10.5861C3.09947 10.6837 3.09913 10.8425 3.19706 10.9404L5.32005 13.0634C5.41742 13.1608 5.57521 13.1611 5.67294 13.0641L14.2812 4.51991L14.4214 4.38907L14.8046 4.00589C14.9706 3.84378 15.1028 3.65041 15.1936 3.43694C15.2845 3.22346 15.3322 2.99411 15.3339 2.76212C15.3356 2.53012 15.2914 2.30008 15.2038 2.08527C15.1161 1.87046 14.9868 1.67513 14.8233 1.51056Z"
    fill="#FFFFFF"
  />
</svg>
