<svg
  width="3500"
  height="903"
  viewBox="0 0 3500 903"
  fill="none"
  xmlns="http://www.w3.org/2000/svg"
>
  <g clip-path="url(#clip0_1650_65046)">
    <path
      d="M3101.69 303.236C3094.17 281.574 3084.35 260.78 3072.38 241.214C3072.01 240.515 3070.16 237.552 3069.46 236.605C2950.79 88.8555 2515.4 -60.0464 2365.37 265.414C2347.89 303.36 2342.62 385.713 2389.11 435.141C2496.94 549.76 2665.81 427.403 2630.9 332.251C2612.23 280.518 2534.53 274.839 2501.39 301.796C2489.85 311.303 2465.7 340.071 2493.15 370.526C2479.09 383.202 2448.67 360.484 2458.07 321.139C2489.81 187.794 2722.98 143.428 2913.73 271.999C2568.91 603.098 2179.64 648.493 1916.26 385.466C1876.72 345.732 1833.19 310.177 1786.34 279.366C1977.59 119.229 2185.41 178.987 2219.13 321.139C2228.53 360.484 2198.07 383.202 2184.01 370.526C2211.42 340.071 2187.31 311.303 2175.77 301.796C2142.79 274.839 2064.93 280.518 2046.22 332.251C2011.31 427.239 2180.18 549.595 2288.05 435.141C2334.54 385.754 2329.26 303.442 2311.75 265.414C2172.35 -37.1226 1786.51 70.1708 1637.5 205.45C1542.11 171.493 1440.34 159.15 1339.58 169.315C1228.79 179.975 1115.52 216.192 1002.79 276.979C901.724 331.469 800.534 406.126 701.405 499.22C651.449 287.227 754.123 95.8931 878.642 105.812C916.604 108.857 928.516 144.704 913.265 154.17C893.563 118.858 861.001 133.098 849.254 141.206C815.867 164.582 799.421 239.98 840.722 273.645C916.233 335.667 1072.98 212.117 999.987 74.7802C968.456 15.557 893.11 -4.36248 854.159 0.699692C689.947 22.3477 609.737 144.745 582.409 281.918C582.409 281.918 582.409 281.629 582.409 281.547C509.536 198.783 398.165 138.86 293.884 138.86C128.518 138.901 20.6094 248.417 20.6094 357.974C20.6094 526.713 213.427 570.379 247.308 488.067C175.176 511.197 132.516 458.805 132.516 396.989C132.516 274.674 430.15 127.048 605.079 603.797C612.34 624.034 621.678 643.467 632.942 661.786C633.354 662.486 635.168 665.449 635.91 666.395C754.535 814.145 1189.96 963.047 1339.95 637.586C1357.43 599.599 1362.7 517.247 1316.21 467.819C1208.39 353.199 1039.52 475.597 1074.43 570.708C1093.14 622.441 1170.79 628.12 1203.93 601.163C1215.47 591.656 1239.63 562.847 1212.18 532.433C1226.23 519.757 1256.65 542.434 1247.25 581.82C1215.35 715.824 979.914 759.984 788.622 628.985C977.977 445.965 1173.06 339.989 1354.17 322.538C1521.72 306.405 1678.39 365.875 1807.24 494.529C1848.85 536.155 1895.16 572.822 1945.24 603.797C1748.38 787.311 1525.93 728.5 1490.81 581.038C1481.41 541.652 1511.83 518.934 1525.89 531.651C1498.48 562.107 1522.67 590.874 1534.13 600.381C1567.1 627.339 1644.96 621.659 1663.64 569.926C1698.55 474.98 1529.72 352.582 1421.89 467.037C1375.36 516.424 1380.68 598.735 1398.15 636.722C1545.46 956.421 1967.82 818.508 2095.31 673.515C2167.41 697.384 2242.88 709.529 2318.84 709.486C2338.98 709.486 2359.26 708.662 2379.67 707.016C2591.2 689.648 2805.78 583.549 3003.05 399.706C3055.28 613.305 2952.11 807.148 2826.81 797.189C2788.84 794.102 2776.97 758.255 2792.14 748.789C2811.93 784.101 2844.45 769.861 2856.19 761.795C2889.54 738.418 2906.03 662.774 2864.77 629.314C2789.17 567.251 2632.46 691.048 2705.46 828.179C2736.99 887.402 2812.38 907.322 2851.29 902.26C3015.54 880.612 3095.71 758.214 3123.04 621.042C3123.04 621.371 3123.04 621.865 3123.04 622.112C3155.34 658.491 3193.36 689.377 3235.6 713.56V537.372C3187.96 486.462 3141.67 411.106 3101.69 303.236Z"
      fill="#55A3EB"
      fill-opacity="0.08"
    />
    <path
      d="M222.576 415.592C294.749 392.463 337.409 444.895 337.409 506.67C337.409 600.835 161.038 709.692 0.0410156 537.455V713.56C55.4791 745.415 116.976 764.758 176.165 764.758C341.284 764.758 449.316 655.243 449.316 545.686C449.275 376.906 256.416 333.281 222.576 415.592Z"
      fill="#55A3EB"
      fill-opacity="0.08"
    />
  </g>
</svg>
