<svg width="21" height="27" viewBox="0 0 21 27" fill="none" xmlns="http://www.w3.org/2000/svg">
<path d="M10.113 0C4.54176 0 0 4.54176 0 10.113C0 16.5926 5.08678 21.7399 7.81183 24.5255C7.9935 24.8889 8.29629 25.1916 8.53852 25.4339C8.96241 25.8578 9.50743 26.1 10.0524 26.1C10.5974 26.1 11.0819 25.9183 11.5058 25.4944L11.9297 25.0705C14.6548 22.3455 20.226 16.5926 20.226 10.113C20.2865 4.54176 15.6842 0 10.113 0ZM18.4698 10.113C18.4698 15.987 12.9592 21.5582 10.5974 23.9805L10.2341 24.3439C10.1736 24.4044 10.0524 24.465 9.99188 24.465C9.87077 24.465 9.81021 24.4044 9.74965 24.3439C9.50743 24.0411 9.20464 23.7988 8.90186 23.4355C6.29791 20.8316 1.51392 15.9265 1.51392 10.113C1.51392 5.45012 5.329 1.63504 9.99188 1.63504C14.6548 1.63504 18.4698 5.45012 18.4698 10.113Z" fill="#002E6E"/>
<path d="M10.0526 4.54272C7.08536 4.54272 4.66309 6.965 4.66309 9.93228C4.66309 12.8996 7.08536 15.3218 10.0526 15.3218C13.0199 15.3218 15.4422 12.8996 15.4422 9.93228C15.4422 6.965 13.0199 4.54272 10.0526 4.54272ZM13.7466 9.93228C13.7466 11.9912 12.1116 13.6263 10.0526 13.6263C7.99371 13.6263 6.35868 11.9912 6.35868 9.93228C6.35868 7.87335 7.99371 6.23832 10.0526 6.23832C12.1116 6.17776 13.7466 7.87335 13.7466 9.93228Z" fill="#002E6E"/>
</svg>
