<svg width="182" height="25" viewBox="0 0 182 25" fill="none" xmlns="http://www.w3.org/2000/svg">
<path d="M6.35 3.95C7.09 3.95 7.73667 4.1 8.29 4.4C8.85 4.69333 9.28 5.10667 9.58 5.64C9.88 6.17333 10.03 6.78333 10.03 7.47C10.03 8.15 9.87667 8.75667 9.57 9.29C9.27 9.82333 8.84 10.2433 8.28 10.55C7.72667 10.85 7.08333 11 6.35 11H3.56V3.95H6.35ZM6.2 9.27C6.77333 9.27 7.22333 9.11333 7.55 8.8C7.87667 8.48667 8.04 8.04333 8.04 7.47C8.04 6.89 7.87667 6.44333 7.55 6.13C7.22333 5.81 6.77333 5.65 6.2 5.65H5.52V9.27H6.2ZM16.2735 8.13C16.2735 8.28333 16.2635 8.43667 16.2435 8.59H12.5335C12.5535 8.89667 12.6368 9.12667 12.7835 9.28C12.9368 9.42667 13.1302 9.5 13.3635 9.5C13.6902 9.5 13.9235 9.35333 14.0635 9.06H16.1535C16.0668 9.44667 15.8968 9.79333 15.6435 10.1C15.3968 10.4 15.0835 10.6367 14.7035 10.81C14.3235 10.9833 13.9035 11.07 13.4435 11.07C12.8902 11.07 12.3968 10.9533 11.9635 10.72C11.5368 10.4867 11.2002 10.1533 10.9535 9.72C10.7135 9.28667 10.5935 8.77667 10.5935 8.19C10.5935 7.60333 10.7135 7.09667 10.9535 6.67C11.1935 6.23667 11.5268 5.90333 11.9535 5.67C12.3868 5.43667 12.8835 5.32 13.4435 5.32C13.9968 5.32 14.4868 5.43333 14.9135 5.66C15.3402 5.88667 15.6735 6.21333 15.9135 6.64C16.1535 7.06 16.2735 7.55667 16.2735 8.13ZM14.2735 7.64C14.2735 7.4 14.1935 7.21333 14.0335 7.08C13.8735 6.94 13.6735 6.87 13.4335 6.87C13.1935 6.87 12.9968 6.93667 12.8435 7.07C12.6902 7.19667 12.5902 7.38667 12.5435 7.64H14.2735ZM24.4056 5.34C25.1123 5.34 25.6656 5.55333 26.0656 5.98C26.4723 6.40667 26.6756 6.99 26.6756 7.73V11H24.7156V7.99C24.7156 7.69 24.6323 7.45667 24.4656 7.29C24.299 7.12333 24.0723 7.04 23.7856 7.04C23.499 7.04 23.2723 7.12333 23.1056 7.29C22.939 7.45667 22.8556 7.69 22.8556 7.99V11H20.8956V7.99C20.8956 7.69 20.8123 7.45667 20.6456 7.29C20.4856 7.12333 20.2623 7.04 19.9756 7.04C19.6823 7.04 19.4523 7.12333 19.2856 7.29C19.119 7.45667 19.0356 7.69 19.0356 7.99V11H17.0756V5.39H19.0356V6.13C19.209 5.89 19.4323 5.7 19.7056 5.56C19.9856 5.41333 20.3056 5.34 20.6656 5.34C21.079 5.34 21.4456 5.43 21.7656 5.61C22.0923 5.79 22.349 6.04333 22.5356 6.37C22.7356 6.06333 22.999 5.81667 23.3256 5.63C23.6523 5.43667 24.0123 5.34 24.4056 5.34ZM30.3595 11.07C29.7995 11.07 29.2961 10.9533 28.8495 10.72C28.4095 10.4867 28.0628 10.1533 27.8095 9.72C27.5561 9.28667 27.4295 8.77667 27.4295 8.19C27.4295 7.61 27.5561 7.10333 27.8095 6.67C28.0695 6.23667 28.4195 5.90333 28.8595 5.67C29.3061 5.43667 29.8095 5.32 30.3695 5.32C30.9295 5.32 31.4295 5.43667 31.8695 5.67C32.3161 5.90333 32.6661 6.23667 32.9195 6.67C33.1795 7.10333 33.3095 7.61 33.3095 8.19C33.3095 8.77 33.1795 9.28 32.9195 9.72C32.6661 10.1533 32.3161 10.4867 31.8695 10.72C31.4228 10.9533 30.9195 11.07 30.3595 11.07ZM30.3595 9.37C30.6328 9.37 30.8595 9.27 31.0395 9.07C31.2261 8.86333 31.3195 8.57 31.3195 8.19C31.3195 7.81 31.2261 7.52 31.0395 7.32C30.8595 7.12 30.6361 7.02 30.3695 7.02C30.1028 7.02 29.8795 7.12 29.6995 7.32C29.5195 7.52 29.4295 7.81 29.4295 8.19C29.4295 8.57667 29.5161 8.87 29.6895 9.07C29.8628 9.27 30.0861 9.37 30.3595 9.37ZM37.7769 5.34C38.4235 5.34 38.9369 5.55667 39.3169 5.99C39.6969 6.41667 39.8869 6.99667 39.8869 7.73V11H37.9269V7.99C37.9269 7.67 37.8435 7.42 37.6769 7.24C37.5102 7.05333 37.2869 6.96 37.0069 6.96C36.7135 6.96 36.4835 7.05333 36.3169 7.24C36.1502 7.42 36.0669 7.67 36.0669 7.99V11H34.1069V5.39H36.0669V6.19C36.2402 5.93667 36.4735 5.73333 36.7669 5.58C37.0602 5.42 37.3969 5.34 37.7769 5.34ZM43.3523 11.07C42.8457 11.07 42.3923 10.9867 41.9923 10.82C41.599 10.6467 41.2857 10.4133 41.0523 10.12C40.8257 9.82 40.699 9.48333 40.6723 9.11H42.5723C42.599 9.29 42.6823 9.43 42.8223 9.53C42.9623 9.63 43.1357 9.68 43.3423 9.68C43.5023 9.68 43.629 9.64667 43.7223 9.58C43.8157 9.51333 43.8623 9.42667 43.8623 9.32C43.8623 9.18 43.7857 9.07667 43.6323 9.01C43.479 8.94333 43.2257 8.87 42.8723 8.79C42.4723 8.71 42.139 8.62 41.8723 8.52C41.6057 8.42 41.3723 8.25667 41.1723 8.03C40.979 7.80333 40.8823 7.49667 40.8823 7.11C40.8823 6.77667 40.9723 6.47667 41.1523 6.21C41.3323 5.93667 41.5957 5.72 41.9423 5.56C42.2957 5.4 42.719 5.32 43.2123 5.32C43.9457 5.32 44.5223 5.5 44.9423 5.86C45.3623 6.22 45.6057 6.69333 45.6723 7.28H43.9023C43.869 7.1 43.789 6.96333 43.6623 6.87C43.5423 6.77 43.379 6.72 43.1723 6.72C43.0123 6.72 42.889 6.75 42.8023 6.81C42.7223 6.87 42.6823 6.95333 42.6823 7.06C42.6823 7.19333 42.759 7.29667 42.9123 7.37C43.0657 7.43667 43.3123 7.50667 43.6523 7.58C44.059 7.66667 44.3957 7.76333 44.6623 7.87C44.9357 7.97667 45.1723 8.15 45.3723 8.39C45.579 8.62333 45.6823 8.94333 45.6823 9.35C45.6823 9.67667 45.5857 9.97 45.3923 10.23C45.2057 10.49 44.9357 10.6967 44.5823 10.85C44.2357 10.9967 43.8257 11.07 43.3523 11.07ZM49.9559 9.33V11H49.1059C47.6726 11 46.9559 10.29 46.9559 8.87V7.02H46.2659V5.39H46.9559V4.03H48.9259V5.39H49.9459V7.02H48.9259V8.9C48.9259 9.05333 48.9593 9.16333 49.0259 9.23C49.0993 9.29667 49.2193 9.33 49.3859 9.33H49.9559ZM52.8149 6.38C53.0349 6.06 53.3016 5.80667 53.6149 5.62C53.9283 5.43333 54.2649 5.34 54.6249 5.34V7.43H54.0749C53.6483 7.43 53.3316 7.51333 53.1249 7.68C52.9183 7.84667 52.8149 8.13667 52.8149 8.55V11H50.8549V5.39H52.8149V6.38ZM55.0076 8.19C55.0076 7.61 55.1109 7.10333 55.3176 6.67C55.5309 6.23667 55.8176 5.90333 56.1776 5.67C56.5442 5.43667 56.9509 5.32 57.3976 5.32C57.7842 5.32 58.1176 5.39667 58.3976 5.55C58.6776 5.70333 58.8942 5.91 59.0476 6.17V5.39H61.0076V11H59.0476V10.22C58.8942 10.48 58.6742 10.6867 58.3876 10.84C58.1076 10.9933 57.7776 11.07 57.3976 11.07C56.9509 11.07 56.5442 10.9533 56.1776 10.72C55.8176 10.4867 55.5309 10.1533 55.3176 9.72C55.1109 9.28 55.0076 8.77 55.0076 8.19ZM59.0476 8.19C59.0476 7.83 58.9476 7.54667 58.7476 7.34C58.5542 7.13333 58.3142 7.03 58.0276 7.03C57.7342 7.03 57.4909 7.13333 57.2976 7.34C57.1042 7.54 57.0076 7.82333 57.0076 8.19C57.0076 8.55 57.1042 8.83667 57.2976 9.05C57.4909 9.25667 57.7342 9.36 58.0276 9.36C58.3142 9.36 58.5542 9.25667 58.7476 9.05C58.9476 8.84333 59.0476 8.55667 59.0476 8.19ZM65.4345 9.33V11H64.5845C63.1511 11 62.4345 10.29 62.4345 8.87V7.02H61.7445V5.39H62.4345V4.03H64.4045V5.39H65.4245V7.02H64.4045V8.9C64.4045 9.05333 64.4378 9.16333 64.5045 9.23C64.5778 9.29667 64.6978 9.33 64.8645 9.33H65.4345ZM67.3234 4.87C66.9768 4.87 66.6968 4.77667 66.4834 4.59C66.2768 4.39667 66.1734 4.15667 66.1734 3.87C66.1734 3.57667 66.2768 3.33333 66.4834 3.14C66.6968 2.94667 66.9768 2.85 67.3234 2.85C67.6634 2.85 67.9368 2.94667 68.1434 3.14C68.3568 3.33333 68.4634 3.57667 68.4634 3.87C68.4634 4.15667 68.3568 4.39667 68.1434 4.59C67.9368 4.77667 67.6634 4.87 67.3234 4.87ZM68.2934 5.39V11H66.3334V5.39H68.2934ZM72.0196 11.07C71.4596 11.07 70.9563 10.9533 70.5096 10.72C70.0696 10.4867 69.7229 10.1533 69.4696 9.72C69.2163 9.28667 69.0896 8.77667 69.0896 8.19C69.0896 7.61 69.2163 7.10333 69.4696 6.67C69.7296 6.23667 70.0796 5.90333 70.5196 5.67C70.9663 5.43667 71.4696 5.32 72.0296 5.32C72.5896 5.32 73.0896 5.43667 73.5296 5.67C73.9763 5.90333 74.3263 6.23667 74.5796 6.67C74.8396 7.10333 74.9696 7.61 74.9696 8.19C74.9696 8.77 74.8396 9.28 74.5796 9.72C74.3263 10.1533 73.9763 10.4867 73.5296 10.72C73.0829 10.9533 72.5796 11.07 72.0196 11.07ZM72.0196 9.37C72.2929 9.37 72.5196 9.27 72.6996 9.07C72.8863 8.86333 72.9796 8.57 72.9796 8.19C72.9796 7.81 72.8863 7.52 72.6996 7.32C72.5196 7.12 72.2963 7.02 72.0296 7.02C71.7629 7.02 71.5396 7.12 71.3596 7.32C71.1796 7.52 71.0896 7.81 71.0896 8.19C71.0896 8.57667 71.1763 8.87 71.3496 9.07C71.5229 9.27 71.7463 9.37 72.0196 9.37ZM79.437 5.34C80.0837 5.34 80.597 5.55667 80.977 5.99C81.357 6.41667 81.547 6.99667 81.547 7.73V11H79.587V7.99C79.587 7.67 79.5037 7.42 79.337 7.24C79.1704 7.05333 78.947 6.96 78.667 6.96C78.3737 6.96 78.1437 7.05333 77.977 7.24C77.8104 7.42 77.727 7.67 77.727 7.99V11H75.767V5.39H77.727V6.19C77.9004 5.93667 78.1337 5.73333 78.427 5.58C78.7204 5.42 79.057 5.34 79.437 5.34ZM86.4966 6.17C86.6499 5.91 86.8666 5.70333 87.1466 5.55C87.4266 5.39667 87.7566 5.32 88.1366 5.32C88.5832 5.32 88.9866 5.43667 89.3466 5.67C89.7132 5.90333 89.9999 6.23667 90.2066 6.67C90.4199 7.10333 90.5266 7.61 90.5266 8.19C90.5266 8.77 90.4199 9.28 90.2066 9.72C89.9999 10.1533 89.7132 10.4867 89.3466 10.72C88.9866 10.9533 88.5832 11.07 88.1366 11.07C87.7566 11.07 87.4266 10.9933 87.1466 10.84C86.8732 10.6867 86.6566 10.48 86.4966 10.22V13.68H84.5366V5.39H86.4966V6.17ZM88.5366 8.19C88.5366 7.82333 88.4366 7.54 88.2366 7.34C88.0432 7.13333 87.8032 7.03 87.5166 7.03C87.2299 7.03 86.9866 7.13333 86.7866 7.34C86.5932 7.54667 86.4966 7.83 86.4966 8.19C86.4966 8.55667 86.5932 8.84333 86.7866 9.05C86.9866 9.25667 87.2299 9.36 87.5166 9.36C87.8032 9.36 88.0432 9.25667 88.2366 9.05C88.4366 8.83667 88.5366 8.55 88.5366 8.19ZM97.0734 5.39V11H95.1034V10.2C94.9368 10.4533 94.7068 10.66 94.4134 10.82C94.1201 10.9733 93.7834 11.05 93.4034 11.05C92.7501 11.05 92.2334 10.8367 91.8534 10.41C91.4801 9.97667 91.2934 9.39 91.2934 8.65V5.39H93.2434V8.4C93.2434 8.72 93.3268 8.97333 93.4934 9.16C93.6668 9.34 93.8934 9.43 94.1734 9.43C94.4601 9.43 94.6868 9.34 94.8534 9.16C95.0201 8.97333 95.1034 8.72 95.1034 8.4V5.39H97.0734ZM100.149 6.38C100.369 6.06 100.636 5.80667 100.949 5.62C101.262 5.43333 101.599 5.34 101.959 5.34V7.43H101.409C100.982 7.43 100.666 7.51333 100.459 7.68C100.252 7.84667 100.149 8.13667 100.149 8.55V11H98.1889V5.39H100.149V6.38ZM104.622 6.17C104.775 5.91 104.992 5.70333 105.272 5.55C105.552 5.39667 105.882 5.32 106.262 5.32C106.708 5.32 107.112 5.43667 107.472 5.67C107.838 5.90333 108.125 6.23667 108.332 6.67C108.545 7.10333 108.652 7.61 108.652 8.19C108.652 8.77 108.545 9.28 108.332 9.72C108.125 10.1533 107.838 10.4867 107.472 10.72C107.112 10.9533 106.708 11.07 106.262 11.07C105.882 11.07 105.552 10.9933 105.272 10.84C104.998 10.6867 104.782 10.48 104.622 10.22V13.68H102.662V5.39H104.622V6.17ZM106.662 8.19C106.662 7.82333 106.562 7.54 106.362 7.34C106.168 7.13333 105.928 7.03 105.642 7.03C105.355 7.03 105.112 7.13333 104.912 7.34C104.718 7.54667 104.622 7.83 104.622 8.19C104.622 8.55667 104.718 8.84333 104.912 9.05C105.112 9.25667 105.355 9.36 105.642 9.36C105.928 9.36 106.168 9.25667 106.362 9.05C106.562 8.83667 106.662 8.55 106.662 8.19ZM112.068 11.07C111.508 11.07 111.005 10.9533 110.558 10.72C110.118 10.4867 109.772 10.1533 109.518 9.72C109.265 9.28667 109.138 8.77667 109.138 8.19C109.138 7.61 109.265 7.10333 109.518 6.67C109.778 6.23667 110.128 5.90333 110.568 5.67C111.015 5.43667 111.518 5.32 112.078 5.32C112.638 5.32 113.138 5.43667 113.578 5.67C114.025 5.90333 114.375 6.23667 114.628 6.67C114.888 7.10333 115.018 7.61 115.018 8.19C115.018 8.77 114.888 9.28 114.628 9.72C114.375 10.1533 114.025 10.4867 113.578 10.72C113.132 10.9533 112.628 11.07 112.068 11.07ZM112.068 9.37C112.342 9.37 112.568 9.27 112.748 9.07C112.935 8.86333 113.028 8.57 113.028 8.19C113.028 7.81 112.935 7.52 112.748 7.32C112.568 7.12 112.345 7.02 112.078 7.02C111.812 7.02 111.588 7.12 111.408 7.32C111.228 7.52 111.138 7.81 111.138 8.19C111.138 8.57667 111.225 8.87 111.398 9.07C111.572 9.27 111.795 9.37 112.068 9.37ZM118.206 11.07C117.699 11.07 117.246 10.9867 116.846 10.82C116.453 10.6467 116.139 10.4133 115.906 10.12C115.679 9.82 115.553 9.48333 115.526 9.11H117.426C117.453 9.29 117.536 9.43 117.676 9.53C117.816 9.63 117.989 9.68 118.196 9.68C118.356 9.68 118.483 9.64667 118.576 9.58C118.669 9.51333 118.716 9.42667 118.716 9.32C118.716 9.18 118.639 9.07667 118.486 9.01C118.333 8.94333 118.079 8.87 117.726 8.79C117.326 8.71 116.993 8.62 116.726 8.52C116.459 8.42 116.226 8.25667 116.026 8.03C115.833 7.80333 115.736 7.49667 115.736 7.11C115.736 6.77667 115.826 6.47667 116.006 6.21C116.186 5.93667 116.449 5.72 116.796 5.56C117.149 5.4 117.573 5.32 118.066 5.32C118.799 5.32 119.376 5.5 119.796 5.86C120.216 6.22 120.459 6.69333 120.526 7.28H118.756C118.723 7.1 118.643 6.96333 118.516 6.87C118.396 6.77 118.233 6.72 118.026 6.72C117.866 6.72 117.743 6.75 117.656 6.81C117.576 6.87 117.536 6.95333 117.536 7.06C117.536 7.19333 117.613 7.29667 117.766 7.37C117.919 7.43667 118.166 7.50667 118.506 7.58C118.913 7.66667 119.249 7.76333 119.516 7.87C119.789 7.97667 120.026 8.15 120.226 8.39C120.433 8.62333 120.536 8.94333 120.536 9.35C120.536 9.67667 120.439 9.97 120.246 10.23C120.059 10.49 119.789 10.6967 119.436 10.85C119.089 10.9967 118.679 11.07 118.206 11.07ZM126.859 8.13C126.859 8.28333 126.849 8.43667 126.829 8.59H123.119C123.139 8.89667 123.223 9.12667 123.369 9.28C123.523 9.42667 123.716 9.5 123.949 9.5C124.276 9.5 124.509 9.35333 124.649 9.06H126.739C126.653 9.44667 126.483 9.79333 126.229 10.1C125.983 10.4 125.669 10.6367 125.289 10.81C124.909 10.9833 124.489 11.07 124.029 11.07C123.476 11.07 122.983 10.9533 122.549 10.72C122.123 10.4867 121.786 10.1533 121.539 9.72C121.299 9.28667 121.179 8.77667 121.179 8.19C121.179 7.60333 121.299 7.09667 121.539 6.67C121.779 6.23667 122.113 5.90333 122.539 5.67C122.973 5.43667 123.469 5.32 124.029 5.32C124.583 5.32 125.073 5.43333 125.499 5.66C125.926 5.88667 126.259 6.21333 126.499 6.64C126.739 7.06 126.859 7.55667 126.859 8.13ZM124.859 7.64C124.859 7.4 124.779 7.21333 124.619 7.08C124.459 6.94 124.259 6.87 124.019 6.87C123.779 6.87 123.583 6.93667 123.429 7.07C123.276 7.19667 123.176 7.38667 123.129 7.64H124.859ZM130.052 11.07C129.545 11.07 129.092 10.9867 128.692 10.82C128.298 10.6467 127.985 10.4133 127.752 10.12C127.525 9.82 127.398 9.48333 127.372 9.11H129.272C129.298 9.29 129.382 9.43 129.522 9.53C129.662 9.63 129.835 9.68 130.042 9.68C130.202 9.68 130.328 9.64667 130.422 9.58C130.515 9.51333 130.562 9.42667 130.562 9.32C130.562 9.18 130.485 9.07667 130.332 9.01C130.178 8.94333 129.925 8.87 129.572 8.79C129.172 8.71 128.838 8.62 128.572 8.52C128.305 8.42 128.072 8.25667 127.872 8.03C127.678 7.80333 127.582 7.49667 127.582 7.11C127.582 6.77667 127.672 6.47667 127.852 6.21C128.032 5.93667 128.295 5.72 128.642 5.56C128.995 5.4 129.418 5.32 129.912 5.32C130.645 5.32 131.222 5.5 131.642 5.86C132.062 6.22 132.305 6.69333 132.372 7.28H130.602C130.568 7.1 130.488 6.96333 130.362 6.87C130.242 6.77 130.078 6.72 129.872 6.72C129.712 6.72 129.588 6.75 129.502 6.81C129.422 6.87 129.382 6.95333 129.382 7.06C129.382 7.19333 129.458 7.29667 129.612 7.37C129.765 7.43667 130.012 7.50667 130.352 7.58C130.758 7.66667 131.095 7.76333 131.362 7.87C131.635 7.97667 131.872 8.15 132.072 8.39C132.278 8.62333 132.382 8.94333 132.382 9.35C132.382 9.67667 132.285 9.97 132.092 10.23C131.905 10.49 131.635 10.6967 131.282 10.85C130.935 10.9967 130.525 11.07 130.052 11.07ZM137.869 11.07C137.309 11.07 136.806 10.9533 136.359 10.72C135.919 10.4867 135.573 10.1533 135.319 9.72C135.066 9.28667 134.939 8.77667 134.939 8.19C134.939 7.61 135.066 7.10333 135.319 6.67C135.579 6.23667 135.929 5.90333 136.369 5.67C136.816 5.43667 137.319 5.32 137.879 5.32C138.439 5.32 138.939 5.43667 139.379 5.67C139.826 5.90333 140.176 6.23667 140.429 6.67C140.689 7.10333 140.819 7.61 140.819 8.19C140.819 8.77 140.689 9.28 140.429 9.72C140.176 10.1533 139.826 10.4867 139.379 10.72C138.933 10.9533 138.429 11.07 137.869 11.07ZM137.869 9.37C138.143 9.37 138.369 9.27 138.549 9.07C138.736 8.86333 138.829 8.57 138.829 8.19C138.829 7.81 138.736 7.52 138.549 7.32C138.369 7.12 138.146 7.02 137.879 7.02C137.613 7.02 137.389 7.12 137.209 7.32C137.029 7.52 136.939 7.81 136.939 8.19C136.939 8.57667 137.026 8.87 137.199 9.07C137.373 9.27 137.596 9.37 137.869 9.37ZM145.287 5.34C145.933 5.34 146.447 5.55667 146.827 5.99C147.207 6.41667 147.397 6.99667 147.397 7.73V11H145.437V7.99C145.437 7.67 145.353 7.42 145.187 7.24C145.02 7.05333 144.797 6.96 144.517 6.96C144.223 6.96 143.993 7.05333 143.827 7.24C143.66 7.42 143.577 7.67 143.577 7.99V11H141.617V5.39H143.577V6.19C143.75 5.93667 143.983 5.73333 144.277 5.58C144.57 5.42 144.907 5.34 145.287 5.34ZM150.432 3.6V11H148.472V3.6H150.432ZM157.588 5.39L154.028 13.67H151.898L153.238 10.76L150.938 5.39H153.118L154.298 8.57L155.438 5.39H157.588Z" fill="#15284C"/>
<path d="M7.72821 20.9309H6.78422L3.94399 16.9437V20.9309H3V15.5839H3.94399L6.78422 19.5634V15.5839H7.72821V20.9309Z" fill="#0C818F"/>
<path d="M10.9469 21C10.5163 21 10.1271 20.9104 9.77934 20.7311C9.43155 20.5467 9.15829 20.2907 8.95956 19.9629C8.76082 19.63 8.66146 19.2458 8.66146 18.8105C8.66146 18.3803 8.76359 17.9987 8.96784 17.6658C9.17209 17.3329 9.45087 17.0768 9.80418 16.8976C10.1575 16.7183 10.5522 16.6287 10.9883 16.6287C11.4244 16.6287 11.8191 16.7183 12.1724 16.8976C12.5257 17.0768 12.8045 17.3329 13.0088 17.6658C13.213 17.9987 13.3151 18.3803 13.3151 18.8105C13.3151 19.2407 13.2103 19.6223 13.0005 19.9552C12.7907 20.2881 12.5036 20.5467 12.1393 20.7311C11.7805 20.9104 11.383 21 10.9469 21ZM10.9469 20.2394C11.1898 20.2394 11.4161 20.1857 11.6259 20.0781C11.8412 19.9706 12.0151 19.8092 12.1476 19.5941C12.2801 19.379 12.3463 19.1178 12.3463 18.8105C12.3463 18.5032 12.2828 18.2446 12.1559 18.0346C12.0289 17.8195 11.8605 17.6581 11.6507 17.5506C11.441 17.443 11.2146 17.3892 10.9717 17.3892C10.7288 17.3892 10.5025 17.443 10.2927 17.5506C10.0885 17.6581 9.92563 17.8195 9.80418 18.0346C9.68273 18.2446 9.62201 18.5032 9.62201 18.8105C9.62201 19.2663 9.74621 19.6197 9.99463 19.8707C10.2486 20.1165 10.566 20.2394 10.9469 20.2394Z" fill="#0C818F"/>
<path d="M16.8796 16.137C16.7085 16.137 16.5649 16.0832 16.449 15.9757C16.3331 15.8681 16.2751 15.735 16.2751 15.5762C16.2751 15.4174 16.3331 15.2843 16.449 15.1767C16.5649 15.0691 16.7085 15.0154 16.8796 15.0154C17.0452 15.0154 17.186 15.0691 17.3019 15.1767C17.4178 15.2843 17.4758 15.4174 17.4758 15.5762C17.4758 15.735 17.4178 15.8681 17.3019 15.9757C17.186 16.0832 17.0452 16.137 16.8796 16.137ZM17.3433 16.6978V20.9309H16.3993V16.6978H17.3433Z" fill="#0C818F"/>
<path d="M20.8847 16.6287C21.2435 16.6287 21.5637 16.6978 21.8452 16.8361C22.1323 16.9744 22.3559 17.1793 22.516 17.4507C22.6761 17.7222 22.7561 18.0499 22.7561 18.4341V20.9309H21.8204V18.5647C21.8204 18.1857 21.7183 17.8963 21.514 17.6965C21.3098 17.4917 21.031 17.3892 20.6777 17.3892C20.3244 17.3892 20.0428 17.4917 19.8331 17.6965C19.6288 17.8963 19.5267 18.1857 19.5267 18.5647V20.9309H18.5827V16.6978H19.5267V17.1818C19.6812 17.0077 19.8772 16.872 20.1146 16.7746C20.3575 16.6773 20.6142 16.6287 20.8847 16.6287Z" fill="#0C818F"/>
<path d="M25.873 17.4123H25.0284V20.9309H24.0761V17.4123H23.5379V16.6978H24.0761V16.3982C24.0761 15.9117 24.2142 15.5583 24.4902 15.338C24.7717 15.1127 25.2106 15 25.8068 15V15.7298C25.5197 15.7298 25.3182 15.781 25.2023 15.8835C25.0864 15.9808 25.0284 16.1524 25.0284 16.3982V16.6978H25.873V17.4123Z" fill="#0C818F"/>
<path d="M28.6887 21C28.2581 21 27.8689 20.9104 27.5211 20.7311C27.1733 20.5467 26.9001 20.2907 26.7013 19.9629C26.5026 19.63 26.4032 19.2458 26.4032 18.8105C26.4032 18.3803 26.5054 17.9987 26.7096 17.6658C26.9139 17.3329 27.1927 17.0768 27.546 16.8976C27.8993 16.7183 28.294 16.6287 28.7301 16.6287C29.1662 16.6287 29.5609 16.7183 29.9142 16.8976C30.2675 17.0768 30.5463 17.3329 30.7506 17.6658C30.9548 17.9987 31.0569 18.3803 31.0569 18.8105C31.0569 19.2407 30.952 19.6223 30.7423 19.9552C30.5325 20.2881 30.2454 20.5467 29.8811 20.7311C29.5223 20.9104 29.1248 21 28.6887 21ZM28.6887 20.2394C28.9316 20.2394 29.1579 20.1857 29.3677 20.0781C29.583 19.9706 29.7569 19.8092 29.8894 19.5941C30.0219 19.379 30.0881 19.1178 30.0881 18.8105C30.0881 18.5032 30.0246 18.2446 29.8976 18.0346C29.7707 17.8195 29.6023 17.6581 29.3925 17.5506C29.1828 17.443 28.9564 17.3892 28.7135 17.3892C28.4706 17.3892 28.2443 17.443 28.0345 17.5506C27.8303 17.6581 27.6674 17.8195 27.546 18.0346C27.4245 18.2446 27.3638 18.5032 27.3638 18.8105C27.3638 19.2663 27.488 19.6197 27.7364 19.8707C27.9904 20.1165 28.3078 20.2394 28.6887 20.2394Z" fill="#0C818F"/>
<path d="M32.9341 17.3124C33.0721 17.0973 33.2543 16.9309 33.4806 16.8131C33.7125 16.6901 33.9857 16.6287 34.3004 16.6287V17.5352H34.0603C33.6904 17.5352 33.4089 17.6223 33.2156 17.7964C33.0279 17.9706 32.9341 18.2727 32.9341 18.7029V20.9309H31.9901V16.6978H32.9341V17.3124Z" fill="#0C818F"/>
<path d="M40.6913 16.6287C41.0501 16.6287 41.3703 16.6978 41.6518 16.8361C41.9389 16.9744 42.1624 17.1793 42.3225 17.4507C42.4881 17.7222 42.5709 18.0499 42.5709 18.4341V20.9309H41.6352V18.5647C41.6352 18.1857 41.5331 17.8963 41.3289 17.6965C41.1246 17.4917 40.8458 17.3892 40.4925 17.3892C40.1392 17.3892 39.8577 17.4917 39.6479 17.6965C39.4436 17.8963 39.3415 18.1857 39.3415 18.5647V20.9309H38.4058V18.5647C38.4058 18.1857 38.3037 17.8963 38.0994 17.6965C37.8952 17.4917 37.6164 17.3892 37.2631 17.3892C36.9098 17.3892 36.6283 17.4917 36.4185 17.6965C36.2142 17.8963 36.1121 18.1857 36.1121 18.5647V20.9309H35.1681V16.6978H36.1121V17.1818C36.2667 17.0077 36.4626 16.872 36.7 16.7746C36.9374 16.6773 37.1913 16.6287 37.4618 16.6287C37.8262 16.6287 38.1519 16.7004 38.4389 16.8438C38.726 16.9872 38.9468 17.1946 39.1014 17.4661C39.2394 17.21 39.4547 17.0077 39.7473 16.8592C40.0399 16.7055 40.3545 16.6287 40.6913 16.6287Z" fill="#0C818F"/>
<path d="M43.4575 18.7951C43.4575 18.37 43.5513 17.9936 43.739 17.6658C43.9322 17.338 44.1917 17.0845 44.5174 16.9052C44.8486 16.7209 45.213 16.6287 45.6104 16.6287C45.9693 16.6287 46.2812 16.6953 46.5461 16.8284C46.8166 16.9565 47.0319 17.1178 47.192 17.3124V16.6978H48.1443V20.9309H47.192V20.3009C47.0319 20.5006 46.8139 20.6671 46.5379 20.8003C46.2618 20.9334 45.9472 21 45.5939 21C45.2019 21 44.8431 20.9078 44.5174 20.7234C44.1917 20.5339 43.9322 20.2727 43.739 19.9398C43.5513 19.6018 43.4575 19.2202 43.4575 18.7951ZM47.192 18.8105C47.192 18.5186 47.1258 18.265 46.9933 18.0499C46.8663 17.8348 46.698 17.6709 46.4882 17.5583C46.2784 17.4456 46.0521 17.3892 45.8092 17.3892C45.5663 17.3892 45.3399 17.4456 45.1302 17.5583C44.9204 17.6658 44.7493 17.8271 44.6168 18.0423C44.4898 18.2522 44.4263 18.5032 44.4263 18.7951C44.4263 19.0871 44.4898 19.3432 44.6168 19.5634C44.7493 19.7836 44.9204 19.9526 45.1302 20.0704C45.3455 20.1831 45.5718 20.2394 45.8092 20.2394C46.0521 20.2394 46.2784 20.1831 46.4882 20.0704C46.698 19.9577 46.8663 19.7939 46.9933 19.5787C47.1258 19.3585 47.192 19.1024 47.192 18.8105Z" fill="#0C818F"/>
<path d="M50.4855 17.4123V19.7554C50.4855 19.9142 50.5241 20.0294 50.6014 20.1012C50.6842 20.1677 50.8222 20.201 51.0155 20.201H51.5951V20.9309H50.8498C50.4248 20.9309 50.0991 20.8387 49.8727 20.6543C49.6464 20.4699 49.5332 20.1703 49.5332 19.7554V17.4123H48.995V16.6978H49.5332V15.6453H50.4855V16.6978H51.5951V17.4123H50.4855Z" fill="#0C818F"/>
<path d="M52.9454 16.137C52.7743 16.137 52.6308 16.0832 52.5148 15.9757C52.3989 15.8681 52.3409 15.735 52.3409 15.5762C52.3409 15.4174 52.3989 15.2843 52.5148 15.1767C52.6308 15.0691 52.7743 15.0154 52.9454 15.0154C53.111 15.0154 53.2518 15.0691 53.3677 15.1767C53.4837 15.2843 53.5416 15.4174 53.5416 15.5762C53.5416 15.735 53.4837 15.8681 53.3677 15.9757C53.2518 16.0832 53.111 16.137 52.9454 16.137ZM53.4091 16.6978V20.9309H52.4651V16.6978H53.4091Z" fill="#0C818F"/>
<path d="M56.6276 21C56.197 21 55.8078 20.9104 55.46 20.7311C55.1122 20.5467 54.839 20.2907 54.6402 19.9629C54.4415 19.63 54.3421 19.2458 54.3421 18.8105C54.3421 18.3803 54.4442 17.9987 54.6485 17.6658C54.8528 17.3329 55.1315 17.0768 55.4848 16.8976C55.8381 16.7183 56.2328 16.6287 56.669 16.6287C57.1051 16.6287 57.4998 16.7183 57.8531 16.8976C58.2064 17.0768 58.4852 17.3329 58.6894 17.6658C58.8937 17.9987 58.9958 18.3803 58.9958 18.8105C58.9958 19.2407 58.8909 19.6223 58.6811 19.9552C58.4714 20.2881 58.1843 20.5467 57.82 20.7311C57.4611 20.9104 57.0637 21 56.6276 21ZM56.6276 20.2394C56.8705 20.2394 57.0968 20.1857 57.3066 20.0781C57.5219 19.9706 57.6958 19.8092 57.8282 19.5941C57.9607 19.379 58.027 19.1178 58.027 18.8105C58.027 18.5032 57.9635 18.2446 57.8365 18.0346C57.7095 17.8195 57.5412 17.6581 57.3314 17.5506C57.1216 17.443 56.8953 17.3892 56.6524 17.3892C56.4095 17.3892 56.1832 17.443 55.9734 17.5506C55.7691 17.6581 55.6063 17.8195 55.4848 18.0346C55.3634 18.2446 55.3027 18.5032 55.3027 18.8105C55.3027 19.2663 55.4269 19.6197 55.6753 19.8707C55.9292 20.1165 56.2466 20.2394 56.6276 20.2394Z" fill="#0C818F"/>
<path d="M62.231 16.6287C62.5898 16.6287 62.91 16.6978 63.1915 16.8361C63.4786 16.9744 63.7022 17.1793 63.8623 17.4507C64.0224 17.7222 64.1024 18.0499 64.1024 18.4341V20.9309H63.1667V18.5647C63.1667 18.1857 63.0646 17.8963 62.8603 17.6965C62.6561 17.4917 62.3773 17.3892 62.024 17.3892C61.6707 17.3892 61.3891 17.4917 61.1794 17.6965C60.9751 17.8963 60.873 18.1857 60.873 18.5647V20.9309H59.929V16.6978H60.873V17.1818C61.0275 17.0077 61.2235 16.872 61.4609 16.7746C61.7038 16.6773 61.9605 16.6287 62.231 16.6287Z" fill="#0C818F"/>
<path d="M73.5851 16.6978L72.1692 20.9309H71.1755L70.2564 17.8041L69.3372 20.9309H68.3435L66.9193 16.6978H67.8798L68.8321 20.1012L69.8009 16.6978H70.7863L71.7137 20.0858L72.6577 16.6978H73.5851Z" fill="#0C818F"/>
<path d="M74.7709 16.137C74.5998 16.137 74.4562 16.0832 74.3403 15.9757C74.2244 15.8681 74.1664 15.735 74.1664 15.5762C74.1664 15.4174 74.2244 15.2843 74.3403 15.1767C74.4562 15.0691 74.5998 15.0154 74.7709 15.0154C74.9365 15.0154 75.0773 15.0691 75.1932 15.1767C75.3091 15.2843 75.3671 15.4174 75.3671 15.5762C75.3671 15.735 75.3091 15.8681 75.1932 15.9757C75.0773 16.0832 74.9365 16.137 74.7709 16.137ZM75.2346 16.6978V20.9309H74.2906V16.6978H75.2346Z" fill="#0C818F"/>
<path d="M77.418 15.2458V20.9309H76.474V15.2458H77.418Z" fill="#0C818F"/>
<path d="M79.6013 15.2458V20.9309H78.6573V15.2458H79.6013Z" fill="#0C818F"/>
<path d="M83.9357 17.3278C84.0958 17.1229 84.3138 16.9565 84.5898 16.8284C84.8714 16.6953 85.1833 16.6287 85.5255 16.6287C85.9285 16.6287 86.2929 16.7183 86.6186 16.8976C86.9443 17.0768 87.201 17.3329 87.3887 17.6658C87.5764 17.9936 87.6702 18.37 87.6702 18.7951C87.6702 19.2202 87.5764 19.6018 87.3887 19.9398C87.201 20.2727 86.9415 20.5339 86.6103 20.7234C86.2846 20.9078 85.923 21 85.5255 21C85.1722 21 84.8576 20.936 84.5816 20.8079C84.3111 20.6799 84.0958 20.516 83.9357 20.3163V20.9309H82.9917V15.2458H83.9357V17.3278ZM86.7097 18.7951C86.7097 18.5032 86.6434 18.2522 86.5109 18.0423C86.384 17.8271 86.2128 17.6658 85.9975 17.5583C85.7878 17.4456 85.5614 17.3892 85.3185 17.3892C85.0812 17.3892 84.8548 17.4456 84.6395 17.5583C84.4298 17.6709 84.2586 17.8348 84.1261 18.0499C83.9992 18.265 83.9357 18.5186 83.9357 18.8105C83.9357 19.1024 83.9992 19.3585 84.1261 19.5787C84.2586 19.7939 84.4298 19.9577 84.6395 20.0704C84.8548 20.1831 85.0812 20.2394 85.3185 20.2394C85.5614 20.2394 85.7878 20.1831 85.9975 20.0704C86.2128 19.9526 86.384 19.7836 86.5109 19.5634C86.6434 19.3432 86.7097 19.0871 86.7097 18.7951Z" fill="#0C818F"/>
<path d="M92.7854 18.7106C92.7854 18.8694 92.7744 19.0128 92.7523 19.1408H89.2662C89.2938 19.4789 89.429 19.7503 89.6719 19.9552C89.9148 20.1601 90.2129 20.2625 90.5662 20.2625C91.0741 20.2625 91.4329 20.0653 91.6427 19.6709H92.6612C92.5232 20.0602 92.272 20.3803 91.9077 20.6312C91.5488 20.8771 91.1017 21 90.5662 21C90.1301 21 89.7382 20.9104 89.3904 20.7311C89.0481 20.5467 88.7776 20.2907 88.5789 19.9629C88.3857 19.63 88.2891 19.2458 88.2891 18.8105C88.2891 18.3752 88.3829 17.9936 88.5706 17.6658C88.7638 17.3329 89.0316 17.0768 89.3738 16.8976C89.7216 16.7183 90.1191 16.6287 90.5662 16.6287C90.9968 16.6287 91.3805 16.7157 91.7172 16.8899C92.054 17.064 92.3162 17.3099 92.5039 17.6274C92.6916 17.9398 92.7854 18.3009 92.7854 18.7106ZM91.8 18.4341C91.7945 18.1114 91.6703 17.8528 91.4274 17.6581C91.1845 17.4635 90.8836 17.3662 90.5248 17.3662C90.1991 17.3662 89.9203 17.4635 89.6885 17.6581C89.4566 17.8476 89.3186 18.1063 89.2744 18.4341H91.8Z" fill="#0C818F"/>
<path d="M97.5215 21C97.1627 21 96.8398 20.9411 96.5527 20.8233C96.2712 20.7004 96.0476 20.5365 95.882 20.3316C95.7164 20.1216 95.628 19.8886 95.617 19.6325H96.5941C96.6107 19.8118 96.7017 19.9629 96.8674 20.0858C97.0385 20.2036 97.251 20.2625 97.505 20.2625C97.7699 20.2625 97.9742 20.2164 98.1177 20.1242C98.2668 20.0269 98.3413 19.904 98.3413 19.7554C98.3413 19.5967 98.2585 19.4789 98.0929 19.402C97.9328 19.3252 97.6761 19.2407 97.3228 19.1485C96.9805 19.0615 96.7017 18.977 96.4864 18.895C96.2712 18.8131 96.0835 18.6876 95.9234 18.5186C95.7688 18.3496 95.6915 18.1268 95.6915 17.8502C95.6915 17.6248 95.7633 17.42 95.9068 17.2356C96.0503 17.0461 96.2546 16.8976 96.5196 16.79C96.7901 16.6825 97.0992 16.6287 97.447 16.6287C97.9659 16.6287 98.3827 16.7516 98.6974 16.9974C99.0175 17.2382 99.1887 17.5685 99.2108 17.9885H98.2668C98.2502 17.799 98.1674 17.6479 98.0184 17.5352C97.8693 17.4225 97.6678 17.3662 97.4139 17.3662C97.1655 17.3662 96.975 17.4097 96.8425 17.4968C96.71 17.5839 96.6438 17.6991 96.6438 17.8425C96.6438 17.9552 96.6879 18.0499 96.7763 18.1268C96.8646 18.2036 96.9722 18.265 97.0992 18.3111C97.2262 18.3521 97.4139 18.4059 97.6623 18.4725C97.9935 18.5544 98.264 18.6389 98.4738 18.726C98.6891 18.8079 98.874 18.9309 99.0286 19.0948C99.1832 19.2586 99.2632 19.4763 99.2687 19.7478C99.2687 19.9885 99.197 20.2036 99.0534 20.3931C98.9099 20.5826 98.7056 20.7311 98.4407 20.8387C98.1812 20.9462 97.8748 21 97.5215 21Z" fill="#0C818F"/>
<path d="M99.9741 18.7951C99.9741 18.37 100.068 17.9936 100.256 17.6658C100.449 17.338 100.708 17.0845 101.034 16.9052C101.365 16.7209 101.73 16.6287 102.127 16.6287C102.486 16.6287 102.798 16.6953 103.063 16.8284C103.333 16.9565 103.549 17.1178 103.709 17.3124V16.6978H104.661V20.9309H103.709V20.3009C103.549 20.5006 103.33 20.6671 103.054 20.8003C102.778 20.9334 102.464 21 102.11 21C101.718 21 101.36 20.9078 101.034 20.7234C100.708 20.5339 100.449 20.2727 100.256 19.9398C100.068 19.6018 99.9741 19.2202 99.9741 18.7951ZM103.709 18.8105C103.709 18.5186 103.642 18.265 103.51 18.0499C103.383 17.8348 103.215 17.6709 103.005 17.5583C102.795 17.4456 102.569 17.3892 102.326 17.3892C102.083 17.3892 101.857 17.4456 101.647 17.5583C101.437 17.6658 101.266 17.8271 101.133 18.0423C101.006 18.2522 100.943 18.5032 100.943 18.7951C100.943 19.0871 101.006 19.3432 101.133 19.5634C101.266 19.7836 101.437 19.9526 101.647 20.0704C101.862 20.1831 102.088 20.2394 102.326 20.2394C102.569 20.2394 102.795 20.1831 103.005 20.0704C103.215 19.9577 103.383 19.7939 103.51 19.5787C103.642 19.3585 103.709 19.1024 103.709 18.8105Z" fill="#0C818F"/>
<path d="M107.665 20.1472L108.956 16.6978H109.958L108.219 20.9309H107.093L105.363 16.6978H106.373L107.665 20.1472Z" fill="#0C818F"/>
<path d="M114.853 18.7106C114.853 18.8694 114.842 19.0128 114.82 19.1408H111.334C111.362 19.4789 111.497 19.7503 111.74 19.9552C111.983 20.1601 112.281 20.2625 112.634 20.2625C113.142 20.2625 113.501 20.0653 113.711 19.6709H114.729C114.591 20.0602 114.34 20.3803 113.976 20.6312C113.617 20.8771 113.17 21 112.634 21C112.198 21 111.806 20.9104 111.458 20.7311C111.116 20.5467 110.846 20.2907 110.647 19.9629C110.454 19.63 110.357 19.2458 110.357 18.8105C110.357 18.3752 110.451 17.9936 110.639 17.6658C110.832 17.3329 111.1 17.0768 111.442 16.8976C111.79 16.7183 112.187 16.6287 112.634 16.6287C113.065 16.6287 113.449 16.7157 113.785 16.8899C114.122 17.064 114.384 17.3099 114.572 17.6274C114.76 17.9398 114.853 18.3009 114.853 18.7106ZM113.868 18.4341C113.863 18.1114 113.738 17.8528 113.495 17.6581C113.253 17.4635 112.952 17.3662 112.593 17.3662C112.267 17.3662 111.988 17.4635 111.757 17.6581C111.525 17.8476 111.387 18.1063 111.343 18.4341H113.868Z" fill="#0C818F"/>
<path d="M115.468 18.7951C115.468 18.37 115.562 17.9936 115.749 17.6658C115.943 17.338 116.202 17.0845 116.528 16.9052C116.859 16.7209 117.226 16.6287 117.629 16.6287C117.927 16.6287 118.22 16.6901 118.507 16.8131C118.799 16.9309 119.031 17.0896 119.202 17.2894V15.2458H120.155V20.9309H119.202V20.2932C119.048 20.4981 118.832 20.6671 118.556 20.8003C118.286 20.9334 117.974 21 117.621 21C117.223 21 116.859 20.9078 116.528 20.7234C116.202 20.5339 115.943 20.2727 115.749 19.9398C115.562 19.6018 115.468 19.2202 115.468 18.7951ZM119.202 18.8105C119.202 18.5186 119.136 18.265 119.004 18.0499C118.877 17.8348 118.708 17.6709 118.498 17.5583C118.289 17.4456 118.062 17.3892 117.819 17.3892C117.577 17.3892 117.35 17.4456 117.14 17.5583C116.931 17.6658 116.76 17.8271 116.627 18.0423C116.5 18.2522 116.437 18.5032 116.437 18.7951C116.437 19.0871 116.5 19.3432 116.627 19.5634C116.76 19.7836 116.931 19.9526 117.14 20.0704C117.356 20.1831 117.582 20.2394 117.819 20.2394C118.062 20.2394 118.289 20.1831 118.498 20.0704C118.708 19.9577 118.877 19.7939 119.004 19.5787C119.136 19.3585 119.202 19.1024 119.202 18.8105Z" fill="#0C818F"/>
<path d="M125.525 21C125.094 21 124.705 20.9104 124.357 20.7311C124.009 20.5467 123.736 20.2907 123.537 19.9629C123.338 19.63 123.239 19.2458 123.239 18.8105C123.239 18.3803 123.341 17.9987 123.546 17.6658C123.75 17.3329 124.029 17.0768 124.382 16.8976C124.735 16.7183 125.13 16.6287 125.566 16.6287C126.002 16.6287 126.397 16.7183 126.75 16.8976C127.103 17.0768 127.382 17.3329 127.586 17.6658C127.791 17.9987 127.893 18.3803 127.893 18.8105C127.893 19.2407 127.788 19.6223 127.578 19.9552C127.368 20.2881 127.081 20.5467 126.717 20.7311C126.358 20.9104 125.961 21 125.525 21ZM125.525 20.2394C125.767 20.2394 125.994 20.1857 126.204 20.0781C126.419 19.9706 126.593 19.8092 126.725 19.5941C126.858 19.379 126.924 19.1178 126.924 18.8105C126.924 18.5032 126.861 18.2446 126.734 18.0346C126.607 17.8195 126.438 17.6581 126.228 17.5506C126.019 17.443 125.792 17.3892 125.549 17.3892C125.307 17.3892 125.08 17.443 124.87 17.5506C124.666 17.6581 124.503 17.8195 124.382 18.0346C124.26 18.2446 124.2 18.5032 124.2 18.8105C124.2 19.2663 124.324 19.6197 124.572 19.8707C124.826 20.1165 125.144 20.2394 125.525 20.2394Z" fill="#0C818F"/>
<path d="M129.77 17.3124C129.908 17.0973 130.09 16.9309 130.316 16.8131C130.548 16.6901 130.822 16.6287 131.136 16.6287V17.5352H130.896C130.526 17.5352 130.245 17.6223 130.052 17.7964C129.864 17.9706 129.77 18.2727 129.77 18.7029V20.9309H128.826V16.6978H129.77V17.3124Z" fill="#0C818F"/>
<path d="M135.811 21C135.452 21 135.129 20.9411 134.842 20.8233C134.561 20.7004 134.337 20.5365 134.172 20.3316C134.006 20.1216 133.918 19.8886 133.907 19.6325H134.884C134.9 19.8118 134.991 19.9629 135.157 20.0858C135.328 20.2036 135.541 20.2625 135.795 20.2625C136.06 20.2625 136.264 20.2164 136.407 20.1242C136.556 20.0269 136.631 19.904 136.631 19.7554C136.631 19.5967 136.548 19.4789 136.382 19.402C136.222 19.3252 135.966 19.2407 135.612 19.1485C135.27 19.0615 134.991 18.977 134.776 18.895C134.561 18.8131 134.373 18.6876 134.213 18.5186C134.058 18.3496 133.981 18.1268 133.981 17.8502C133.981 17.6248 134.053 17.42 134.196 17.2356C134.34 17.0461 134.544 16.8976 134.809 16.79C135.08 16.6825 135.389 16.6287 135.737 16.6287C136.256 16.6287 136.672 16.7516 136.987 16.9974C137.307 17.2382 137.478 17.5685 137.5 17.9885H136.556C136.54 17.799 136.457 17.6479 136.308 17.5352C136.159 17.4225 135.957 17.3662 135.703 17.3662C135.455 17.3662 135.265 17.4097 135.132 17.4968C135 17.5839 134.933 17.6991 134.933 17.8425C134.933 17.9552 134.978 18.0499 135.066 18.1268C135.154 18.2036 135.262 18.265 135.389 18.3111C135.516 18.3521 135.703 18.4059 135.952 18.4725C136.283 18.5544 136.554 18.6389 136.763 18.726C136.979 18.8079 137.164 18.9309 137.318 19.0948C137.473 19.2586 137.553 19.4763 137.558 19.7478C137.558 19.9885 137.487 20.2036 137.343 20.3931C137.199 20.5826 136.995 20.7311 136.73 20.8387C136.471 20.9462 136.164 21 135.811 21Z" fill="#0C818F"/>
<path d="M142.71 16.6978V20.9309H141.766V20.4315C141.617 20.6056 141.421 20.7439 141.178 20.8464C140.941 20.9437 140.687 20.9923 140.417 20.9923C140.058 20.9923 139.735 20.9232 139.448 20.7849C139.166 20.6466 138.943 20.4417 138.777 20.1703C138.617 19.8988 138.537 19.5711 138.537 19.1869V16.6978H139.473V19.0563C139.473 19.4353 139.575 19.7273 139.779 19.9321C139.983 20.1319 140.262 20.2318 140.615 20.2318C140.969 20.2318 141.247 20.1319 141.452 19.9321C141.661 19.7273 141.766 19.4353 141.766 19.0563V16.6978H142.71Z" fill="#0C818F"/>
<path d="M144.9 17.3278C145.06 17.1229 145.278 16.9565 145.554 16.8284C145.836 16.6953 146.147 16.6287 146.49 16.6287C146.893 16.6287 147.257 16.7183 147.583 16.8976C147.908 17.0768 148.165 17.3329 148.353 17.6658C148.541 17.9936 148.634 18.37 148.634 18.7951C148.634 19.2202 148.541 19.6018 148.353 19.9398C148.165 20.2727 147.906 20.5339 147.574 20.7234C147.249 20.9078 146.887 21 146.49 21C146.136 21 145.822 20.936 145.546 20.8079C145.275 20.6799 145.06 20.516 144.9 20.3163V20.9309H143.956V15.2458H144.9V17.3278ZM147.674 18.7951C147.674 18.5032 147.608 18.2522 147.475 18.0423C147.348 17.8271 147.177 17.6658 146.962 17.5583C146.752 17.4456 146.526 17.3892 146.283 17.3892C146.045 17.3892 145.819 17.4456 145.604 17.5583C145.394 17.6709 145.223 17.8348 145.09 18.0499C144.963 18.265 144.9 18.5186 144.9 18.8105C144.9 19.1024 144.963 19.3585 145.09 19.5787C145.223 19.7939 145.394 19.9577 145.604 20.0704C145.819 20.1831 146.045 20.2394 146.283 20.2394C146.526 20.2394 146.752 20.1831 146.962 20.0704C147.177 19.9526 147.348 19.7836 147.475 19.5634C147.608 19.3432 147.674 19.0871 147.674 18.7951Z" fill="#0C818F"/>
<path d="M155.091 16.6287C155.45 16.6287 155.77 16.6978 156.052 16.8361C156.339 16.9744 156.562 17.1793 156.722 17.4507C156.888 17.7222 156.971 18.0499 156.971 18.4341V20.9309H156.035V18.5647C156.035 18.1857 155.933 17.8963 155.729 17.6965C155.524 17.4917 155.246 17.3892 154.892 17.3892C154.539 17.3892 154.257 17.4917 154.048 17.6965C153.843 17.8963 153.741 18.1857 153.741 18.5647V20.9309H152.806V18.5647C152.806 18.1857 152.703 17.8963 152.499 17.6965C152.295 17.4917 152.016 17.3892 151.663 17.3892C151.31 17.3892 151.028 17.4917 150.818 17.6965C150.614 17.8963 150.512 18.1857 150.512 18.5647V20.9309H149.568V16.6978H150.512V17.1818C150.666 17.0077 150.862 16.872 151.1 16.7746C151.337 16.6773 151.591 16.6287 151.862 16.6287C152.226 16.6287 152.552 16.7004 152.839 16.8438C153.126 16.9872 153.347 17.1946 153.501 17.4661C153.639 17.21 153.854 17.0077 154.147 16.8592C154.44 16.7055 154.754 16.6287 155.091 16.6287Z" fill="#0C818F"/>
<path d="M158.652 16.137C158.481 16.137 158.338 16.0832 158.222 15.9757C158.106 15.8681 158.048 15.735 158.048 15.5762C158.048 15.4174 158.106 15.2843 158.222 15.1767C158.338 15.0691 158.481 15.0154 158.652 15.0154C158.818 15.0154 158.959 15.0691 159.074 15.1767C159.19 15.2843 159.248 15.4174 159.248 15.5762C159.248 15.735 159.19 15.8681 159.074 15.9757C158.959 16.0832 158.818 16.137 158.652 16.137ZM159.116 16.6978V20.9309H158.172V16.6978H159.116Z" fill="#0C818F"/>
<path d="M161.457 17.4123V19.7554C161.457 19.9142 161.495 20.0294 161.573 20.1012C161.655 20.1677 161.793 20.201 161.987 20.201H162.566V20.9309H161.821C161.396 20.9309 161.07 20.8387 160.844 20.6543C160.617 20.4699 160.504 20.1703 160.504 19.7554V17.4123H159.966V16.6978H160.504V15.6453H161.457V16.6978H162.566V17.4123H161.457Z" fill="#0C818F"/>
<path d="M164.538 17.4123V19.7554C164.538 19.9142 164.576 20.0294 164.653 20.1012C164.736 20.1677 164.874 20.201 165.068 20.201H165.647V20.9309H164.902C164.477 20.9309 164.151 20.8387 163.925 20.6543C163.698 20.4699 163.585 20.1703 163.585 19.7554V17.4123H163.047V16.6978H163.585V15.6453H164.538V16.6978H165.647V17.4123H164.538Z" fill="#0C818F"/>
<path d="M170.699 18.7106C170.699 18.8694 170.688 19.0128 170.666 19.1408H167.18C167.207 19.4789 167.342 19.7503 167.585 19.9552C167.828 20.1601 168.126 20.2625 168.48 20.2625C168.988 20.2625 169.346 20.0653 169.556 19.6709H170.575C170.437 20.0602 170.185 20.3803 169.821 20.6312C169.462 20.8771 169.015 21 168.48 21C168.044 21 167.652 20.9104 167.304 20.7311C166.962 20.5467 166.691 20.2907 166.492 19.9629C166.299 19.63 166.203 19.2458 166.203 18.8105C166.203 18.3752 166.296 17.9936 166.484 17.6658C166.677 17.3329 166.945 17.0768 167.287 16.8976C167.635 16.7183 168.033 16.6287 168.48 16.6287C168.91 16.6287 169.294 16.7157 169.631 16.8899C169.967 17.064 170.23 17.3099 170.417 17.6274C170.605 17.9398 170.699 18.3009 170.699 18.7106ZM169.713 18.4341C169.708 18.1114 169.584 17.8528 169.341 17.6581C169.098 17.4635 168.797 17.3662 168.438 17.3662C168.113 17.3662 167.834 17.4635 167.602 17.6581C167.37 17.8476 167.232 18.1063 167.188 18.4341H169.713Z" fill="#0C818F"/>
<path d="M171.313 18.7951C171.313 18.37 171.407 17.9936 171.595 17.6658C171.788 17.338 172.047 17.0845 172.373 16.9052C172.704 16.7209 173.071 16.6287 173.474 16.6287C173.773 16.6287 174.065 16.6901 174.352 16.8131C174.645 16.9309 174.877 17.0896 175.048 17.2894V15.2458H176V20.9309H175.048V20.2932C174.893 20.4981 174.678 20.6671 174.402 20.8003C174.131 20.9334 173.819 21 173.466 21C173.069 21 172.704 20.9078 172.373 20.7234C172.047 20.5339 171.788 20.2727 171.595 19.9398C171.407 19.6018 171.313 19.2202 171.313 18.7951ZM175.048 18.8105C175.048 18.5186 174.981 18.265 174.849 18.0499C174.722 17.8348 174.554 17.6709 174.344 17.5583C174.134 17.4456 173.908 17.3892 173.665 17.3892C173.422 17.3892 173.196 17.4456 172.986 17.5583C172.776 17.6658 172.605 17.8271 172.472 18.0423C172.346 18.2522 172.282 18.5032 172.282 18.7951C172.282 19.0871 172.346 19.3432 172.472 19.5634C172.605 19.7836 172.776 19.9526 172.986 20.0704C173.201 20.1831 173.428 20.2394 173.665 20.2394C173.908 20.2394 174.134 20.1831 174.344 20.0704C174.554 19.9577 174.722 19.7939 174.849 19.5787C174.981 19.3585 175.048 19.1024 175.048 18.8105Z" fill="#0C818F"/>
</svg>
